<svg width="125" height="60" viewBox="0 0 125 60" fill="none" xmlns="http://www.w3.org/2000/svg">
<mask id="mask0_6783_1715" style="mask-type:luminance" maskUnits="userSpaceOnUse" x="0" y="0" width="125" height="60">
<path d="M125 0.988281H0V59.1647H125V0.988281Z" fill="white"/>
</mask>
<g mask="url(#mask0_6783_1715)">
<path d="M48.4543 31.8522L41.1589 31.7597L39.793 35.4626L37.4891 35.4334L43.6354 18.8783L46.1552 18.9103L52.08 35.6183L49.7762 35.5891L48.4543 31.8522ZM47.8409 30.0683L44.8673 21.5821L41.7934 29.9916L47.8409 30.0683ZM65.1101 19.0545L65.0996 20.8305L60.5399 20.7727L60.4512 35.7244L58.2673 35.6967L58.3561 20.745L53.7725 20.6869L53.783 18.9109L65.1101 19.0545ZM75.2814 36.0804C73.7295 36.0607 72.3157 35.6828 71.0401 34.9466C69.7646 34.1944 68.7547 33.1655 68.0105 31.86C67.2823 30.5387 66.9231 29.0621 66.9328 27.4301C66.9425 25.7981 67.3191 24.3388 68.0628 23.0522C68.8225 21.7497 69.8444 20.7466 71.1286 20.0428C72.4129 19.3231 73.8309 18.973 75.3828 18.9927C76.9507 19.0126 78.3724 19.3986 79.6479 20.1508C80.9235 20.887 81.9255 21.9078 82.6537 23.2131C83.382 24.5184 83.7412 25.995 83.7314 27.643C83.7216 29.291 83.3449 30.7583 82.6013 32.0449C81.8577 33.3316 80.8437 34.3348 79.5594 35.0545C78.2753 35.7583 76.8492 36.1003 75.2814 36.0804ZM75.2926 34.1844C76.4605 34.1992 77.5101 33.9405 78.4412 33.4083C79.3884 32.8763 80.1289 32.1096 80.6629 31.1083C81.2128 30.1072 81.4917 28.9427 81.4996 27.6147C81.5076 26.2707 81.2425 25.0993 80.7045 24.1004C80.1825 23.0858 79.4592 22.3005 78.5345 21.7448C77.6098 21.189 76.5555 20.9037 75.3716 20.8887C74.1877 20.8737 73.1301 21.1323 72.199 21.6645C71.2678 22.1967 70.5273 22.9634 69.9773 23.9645C69.4435 24.9498 69.1726 26.1144 69.1646 27.4584C69.1567 28.7864 69.4137 29.9577 69.9357 30.9724C70.4737 31.9872 71.205 32.7725 72.1297 33.3283C73.0704 33.8842 74.1247 34.1696 75.2926 34.1844ZM103.63 19.6627L103.531 36.2704L101.347 36.2427L101.421 23.859L95.8279 36.1728L94.292 36.1533L88.8221 23.6753L88.7485 36.0831L86.5646 36.0554L86.6633 19.4477L89.0151 19.4775L95.0771 33.2831L101.302 19.6332L103.63 19.6627ZM112.537 36.5526C111.434 36.5386 110.443 36.334 109.565 35.9389C108.704 35.5279 108.027 34.9753 107.535 34.281C107.043 33.5708 106.792 32.7595 106.781 31.8474L109.109 31.8769C109.185 32.6619 109.501 33.3299 110.057 33.881C110.63 34.4163 111.461 34.6908 112.548 34.7046C113.588 34.7178 114.406 34.4721 115.001 33.9676C115.612 33.4474 115.92 32.7792 115.925 31.9632C115.928 31.3232 115.756 30.801 115.406 30.3966C115.056 29.9921 114.618 29.6825 114.092 29.4679C113.565 29.2532 112.854 29.0202 111.96 28.7688C110.857 28.4668 109.971 28.1676 109.301 27.8711C108.647 27.5747 108.081 27.1196 107.605 26.5055C107.145 25.8756 106.918 25.0407 106.924 24.0007C106.929 23.0887 107.166 22.2837 107.634 21.5856C108.102 20.8875 108.754 20.3517 109.588 19.9782C110.438 19.605 111.407 19.4253 112.495 19.439C114.063 19.4589 115.34 19.8671 116.328 20.6637C117.331 21.4605 117.893 22.5076 118.013 23.8052L115.613 23.7748C115.537 23.1338 115.204 22.5696 114.615 22.0821C114.026 21.5786 113.244 21.3206 112.268 21.3083C111.356 21.2967 110.611 21.5273 110.032 22C109.453 22.4567 109.161 23.109 109.156 23.957C109.153 24.565 109.318 25.0631 109.651 25.4514C110.001 25.8398 110.423 26.1412 110.918 26.3555C111.429 26.5539 112.139 26.787 113.05 27.0545C114.152 27.3725 115.038 27.6878 115.708 28.0003C116.378 28.2968 116.952 28.7601 117.428 29.3901C117.904 30.0042 118.139 30.8392 118.133 31.8952C118.128 32.7112 117.908 33.4765 117.471 34.191C117.035 34.9055 116.392 35.4814 115.541 35.9186C114.691 36.3558 113.689 36.5672 112.537 36.5526Z" fill="#F7F9FB"/>
<path d="M24.5589 28.289L24.1484 27.7006C24.9792 26.4637 26.6092 24.0161 26.8319 23.6133L27.278 24.1436C26.9835 24.6738 24.6575 28.139 24.5589 28.2847" fill="#307CAB"/>
<path d="M17.4112 52.6511L17.0195 52.0358C17.8882 50.8527 19.594 48.5213 19.8292 48.1367L20.2577 48.696C19.9463 49.2053 17.5146 52.5107 17.4112 52.6511Z" fill="#307CAB"/>
<path d="M27.0325 36.7504C26.6688 36.3202 24.2884 32.9373 24.1875 32.7932L24.5884 32.1914C25.4387 33.4004 27.1194 35.7732 27.394 36.0975L27.0325 36.7504Z" fill="#307CAB"/>
<path d="M20.6362 57.1522C20.253 56.7612 17.7172 53.6274 17.6094 53.4951L17.9808 52.8535C18.8867 53.9732 20.6764 56.1686 20.9657 56.4644L20.6362 57.1522Z" fill="#307CAB"/>
<path d="M14.0716 36.0034C13.7002 35.5882 11.2601 32.2963 11.1562 32.1565L11.5461 31.5391C12.4177 32.7153 14.1404 35.023 14.4209 35.336L14.0716 36.0034Z" fill="#307CAB"/>
<path d="M9.22782 14.1226C8.85641 13.7074 6.4163 10.4154 6.3125 10.2756L6.70268 9.6582C7.57397 10.8344 9.29666 13.1421 9.57715 13.4551L9.22782 14.1226Z" fill="#307CAB"/>
<path d="M26.3634 20.3929C25.9706 20.0213 23.3612 17.0198 23.25 16.8923L23.606 16.2324C24.538 17.3048 26.3796 19.4055 26.6759 19.6873L26.3634 20.3929Z" fill="#307CAB"/>
<path d="M4.03251 35.4448C3.6611 35.0296 1.22099 31.7377 1.11719 31.5979L1.50663 30.9805C2.37792 32.1567 4.10061 34.4644 4.3811 34.7774L4.03251 35.4448Z" fill="#307CAB"/>
<path d="M2.93769 42.919L2.51953 42.343C3.33376 41.0818 4.93056 38.5896 5.14811 38.1836L5.60123 38.7004C5.31338 39.2382 3.03487 42.7695 2.93806 42.9201" fill="#307CAB"/>
<path d="M31.2796 22.2926C31.2796 23.1559 31.1044 23.9998 30.7761 24.7176C30.4479 25.4354 29.9813 25.9948 29.4354 26.3252C28.8895 26.6556 28.2888 26.742 27.7093 26.5736C27.1298 26.4052 26.5975 25.9895 26.1797 25.379C25.7619 24.7686 25.4774 23.9908 25.3621 23.1441C25.2468 22.2974 25.306 21.4198 25.5321 20.6222C25.7582 19.8247 26.1411 19.143 26.6324 18.6633C27.1237 18.1837 27.7013 17.9277 28.2922 17.9277C28.6845 17.9277 29.073 18.0406 29.4354 18.26C29.7979 18.4793 30.1272 18.8009 30.4046 19.2062C30.682 19.6115 30.9021 20.0927 31.0522 20.6222C31.2024 21.1518 31.2796 21.7194 31.2796 22.2926Z" fill="#92D9F8"/>
<path d="M31.2796 38.9117C31.2796 39.775 31.1044 40.6189 30.7761 41.3367C30.4479 42.0545 29.9813 42.614 29.4354 42.9443C28.8895 43.2747 28.2888 43.3612 27.7093 43.1927C27.1298 43.0243 26.5975 42.6086 26.1797 41.9982C25.7619 41.3877 25.4774 40.61 25.3621 39.7633C25.2468 38.9166 25.306 38.039 25.5321 37.2414C25.7582 36.4438 26.1411 35.7621 26.6324 35.2825C27.1237 34.8029 27.7013 34.5469 28.2922 34.5469C29.0845 34.5469 29.8444 35.0067 30.4046 35.8253C30.9649 36.6439 31.2796 37.7541 31.2796 38.9117Z" fill="#92D9F8"/>
<path d="M7.8252 23.0692C7.8252 25.0053 6.88582 26.5779 5.72705 26.5779C4.56829 26.5779 3.62891 25.0069 3.62891 23.0692C3.62891 21.1315 4.56829 19.5605 5.72705 19.5605C6.88582 19.5605 7.8252 21.1315 7.8252 23.0692Z" fill="#5CB1DB"/>
<path d="M2.78722 30.4225C2.78722 32.3586 2.1633 33.9312 1.39361 33.9312C0.623923 33.9312 0 32.3603 0 30.4225C0 28.4848 0.623923 26.916 1.39361 26.916C2.1633 26.916 2.78722 28.487 2.78722 30.4247" fill="#226187"/>
<path d="M3.32043 19.1124C2.58202 20.7173 1.62461 21.666 1.18252 21.2314C0.740438 20.7969 0.980437 19.1436 1.71921 17.5388C2.45798 15.934 3.41466 14.9853 3.85711 15.4198C4.29956 15.8544 4.05919 17.5076 3.32043 19.1124Z" fill="#226187"/>
<path d="M24.3041 3.50353C24.3041 4.79428 23.2234 5.843 21.8902 5.843C20.5569 5.843 19.4766 4.79535 19.4766 3.50353C19.4766 2.21172 20.5569 1.16406 21.8898 1.16406C23.2227 1.16406 24.3041 2.21172 24.3041 3.50353Z" fill="#92D9F8"/>
<path d="M16.4632 54.7277C15.1381 54.7277 14.0625 53.523 14.0625 52.0387C14.0625 50.5543 15.1373 49.3496 16.4632 49.3496C17.7891 49.3496 18.8639 50.5543 18.8639 52.0387C18.8639 53.523 17.7891 54.7277 16.4632 54.7277Z" fill="#5CB1DB"/>
<path d="M22.1098 59.1656C20.7633 59.1656 19.6719 58.1867 19.6719 56.9783C19.6719 55.7698 20.7633 54.791 22.1098 54.791C23.4563 54.791 24.5477 55.7698 24.5477 56.9783C24.5477 58.1867 23.4563 59.1656 22.1098 59.1656Z" fill="#5CB1DB"/>
<path d="M22.322 11.4737C22.0136 11.506 21.704 11.5044 21.3958 11.4688C20.6309 11.2967 19.4287 10.5761 18.9359 7.84829C18.8571 7.16478 18.6483 6.52745 18.3333 6.00912C18.0183 5.4908 17.6099 5.11239 17.1547 4.91716C16.6995 4.72192 16.2159 4.71773 15.7592 4.90505C15.3024 5.09238 14.8909 5.46368 14.5718 5.9765C14.2526 6.48933 14.0387 7.123 13.9543 7.80509C13.87 8.48718 13.9187 9.19018 14.0949 9.83374C14.2711 10.4773 14.5676 11.0355 14.9507 11.4444C15.3337 11.8534 15.7877 12.0967 16.2609 12.1465C17.1848 12.4234 19.3036 13.3899 19.957 16.5119L19.9628 16.4973C20.1285 17.1254 20.4085 17.6755 20.7725 18.0881C21.1365 18.5007 21.5707 18.7602 22.0283 18.8386C22.4859 18.9169 22.9494 18.8112 23.3689 18.5328C23.7883 18.2544 24.1478 17.8139 24.4084 17.2589C24.669 16.7038 24.8209 16.0553 24.8477 15.3833C24.8745 14.7113 24.7752 14.0414 24.5604 13.4459C24.3457 12.8504 24.0237 12.3519 23.6292 12.0042C23.2347 11.6565 22.7827 11.4734 22.322 11.4737Z" fill="#92D9F8"/>
</g>
<mask id="mask1_6783_1715" style="mask-type:luminance" maskUnits="userSpaceOnUse" x="3" y="10" width="17" height="40">
<path d="M7.86074 14.8197C7.86084 15.9773 8.17563 17.0874 8.73588 17.9058C9.29613 18.7243 10.0559 19.1841 10.8482 19.1841C10.8482 19.1841 13.0881 19.0614 13.1451 22.2732C13.1469 22.5685 13.1077 22.8612 13.0299 23.1337C12.7999 23.7887 12.4713 24.359 12.0687 24.8018C11.6662 25.2445 11.2002 25.5482 10.7058 25.6899C10.41 25.7759 10.11 25.8274 9.8087 25.8438C9.8087 25.8438 9.81165 25.8518 9.81202 25.854C9.05191 25.9187 8.33747 26.4054 7.81484 27.2143C7.29221 28.0233 7.0009 29.0935 7.0005 30.2059C7.00078 30.3633 7.0068 30.5206 7.01853 30.6771C7.03011 31.0272 7.01778 31.3781 6.98173 31.7247C6.8389 32.4298 6.42958 33.4457 5.26861 33.9018L5.27339 33.9071C4.84465 34.1098 4.46077 34.4762 4.16149 34.9684C3.86222 35.4606 3.65843 36.0608 3.57123 36.7067C3.48402 37.3526 3.51657 38.0209 3.6655 38.6423C3.81444 39.2637 4.07434 39.8156 4.4183 40.2409L4.40431 40.2511L4.45511 40.2872C4.89971 40.8182 5.45521 41.1112 6.02946 41.1176C6.29362 41.1715 6.54955 41.2908 6.78627 41.4704C7.45142 42.0082 8.1427 43.1747 8.23583 45.7035C8.23583 45.7094 8.23583 45.7153 8.23583 45.7212C8.23583 45.7438 8.23841 45.7653 8.23914 45.7879L8.24245 45.7825C8.29956 46.4763 8.49014 47.1322 8.79209 47.6742C9.09403 48.2161 9.49496 48.6219 9.94836 48.8443C10.4018 49.0668 10.889 49.0969 11.3537 48.9311C11.8183 48.7653 12.2412 48.4104 12.5734 47.9076C12.9055 47.4048 13.1333 46.7747 13.2302 46.0904C13.3272 45.4061 13.2893 44.6956 13.1211 44.0415C12.9529 43.3874 12.6611 42.8163 12.2798 42.3946C11.8984 41.973 11.443 41.7179 10.9664 41.6591L10.9693 41.6505C10.6876 41.6148 10.4134 41.4992 10.1621 41.3101C9.51536 40.7373 9.04239 39.8259 8.83951 38.7614C8.66028 38.079 8.63602 37.3304 8.7703 36.6263C8.97671 35.927 9.32007 35.3325 9.75717 34.9177V34.9225C9.97256 34.7107 10.2175 34.5715 10.4742 34.5149V34.5106C11.0965 34.3606 11.6702 33.9267 12.1133 33.271C12.5563 32.6152 12.8459 31.7714 12.9405 30.8605L12.9467 30.8653C12.9653 30.3738 13.0448 29.8913 13.1812 29.4412C13.504 28.6777 13.947 28.0378 14.4732 27.5749C14.9994 27.112 15.5937 26.8393 16.2066 26.7796L16.1989 26.7693C16.9823 26.7389 17.7261 26.2598 18.2699 25.4353C18.8137 24.6108 19.1138 23.5071 19.1057 22.3622C19.0975 21.2172 18.7817 20.1229 18.2262 19.3151C17.6708 18.5074 16.9203 18.051 16.1366 18.0444C16.0763 18.0444 16.0166 18.0525 15.957 18.0574L15.9618 18.0498C15.9618 18.0498 14.2862 18.1574 13.8574 15.3678C13.8395 15.2078 13.8313 15.0458 13.8327 14.8837C13.8327 14.8633 13.8349 14.8429 13.8349 14.8219C13.8349 13.6643 13.5202 12.554 12.9599 11.7355C12.3997 10.9169 11.6398 10.457 10.8475 10.457C10.0551 10.457 9.29527 10.9169 8.73501 11.7355C8.17475 12.554 7.86 13.6643 7.86 14.8219" fill="white"/>
</mask>
<g mask="url(#mask1_6783_1715)">
<path d="M19.1278 10.7142L18.8867 10.4551H19.1138L19.1278 10.4703V10.7142Z" fill="#50A2CE"/>
<path d="M19.1245 10.9641L18.6562 10.457H18.8834L19.1245 10.7185V10.9641Z" fill="#51A3CE"/>
<path d="M19.125 11.2162L18.4297 10.457H18.6564L19.1247 10.9681L19.125 11.2162Z" fill="#52A4CF"/>
<path d="M19.1256 11.4713L18.2031 10.457H18.4302L19.1256 11.2215V11.4713Z" fill="#52A5D0"/>
<path d="M19.1261 11.7212L17.9766 10.457H18.2037L19.1261 11.4719V11.7212Z" fill="#53A6D1"/>
<path d="M19.1267 11.971L17.75 10.457H17.9771L19.1267 11.7233V11.971Z" fill="#54A6D2"/>
<path d="M19.1272 12.2245L17.5234 10.4551H17.7502L19.1269 11.9739L19.1272 12.2245Z" fill="#54A7D3"/>
<path d="M19.1278 12.4751L17.2969 10.4551H17.524L19.1278 12.2245V12.4751Z" fill="#55A8D3"/>
<path d="M19.1244 12.7257L17.0664 10.4551H17.2935L19.1244 12.4751V12.7257Z" fill="#56A9D4"/>
<path d="M19.1289 12.9777L16.8438 10.457H17.0709L19.1289 12.7277V12.9777Z" fill="#57AAD5"/>
<path d="M19.1276 13.2284L16.6172 10.457H16.8439L19.1291 12.9777L19.1276 13.2284Z" fill="#57ABD6"/>
<path d="M19.1296 13.479L16.3906 10.457H16.6177L19.1296 13.2284V13.479Z" fill="#58ACD7"/>
<path d="M19.1263 13.7296L16.1602 10.457H16.3873L19.1263 13.479V13.7296Z" fill="#59ADD8"/>
<path d="M19.1268 13.9802L15.9336 10.457H16.1607L19.1268 13.7296V13.9802Z" fill="#59AED9"/>
<path d="M19.1235 14.2303L15.7031 10.457H15.9299L19.1231 13.9802L19.1235 14.2303Z" fill="#5AAFDA"/>
<path d="M19.124 14.4809L15.4766 10.457H15.704L19.1244 14.2303L19.124 14.4809Z" fill="#5BB0DA"/>
<path d="M19.1281 14.7315L15.2539 10.457H15.481L19.1285 14.4809L19.1281 14.7315Z" fill="#5CB1DB"/>
<path d="M19.1267 37.4712L13.1488 49.0373H3.52344V19.4116L8.15114 10.457H15.2506L19.1267 14.7315V37.4712Z" fill="#5CB1DB"/>
</g>
<path d="M12.8855 53.8484C12.3932 53.4164 11.8424 53.1464 11.2714 53.0573H11.2736C11.2534 53.0573 11.2368 53.0541 11.218 53.0525H11.1849C11.0023 53.049 10.8211 53.0061 10.6471 52.925C10.3077 52.652 10.0105 52.2794 9.7743 51.8306C9.53809 51.3819 9.36792 50.8666 9.27447 50.3172C9.11232 49.321 8.7519 48.4173 8.23865 47.7201C7.2816 46.3218 6.10369 45.7679 5.61339 46.4869C5.12308 47.206 5.49964 48.9232 6.45743 50.3226C6.82882 50.8805 7.27154 51.3265 7.76049 51.6354C7.76049 51.6354 8.27583 51.9091 8.45178 52.0414C8.9465 52.4566 9.88073 53.3752 10.0681 54.5062C10.1947 55.3333 10.7774 56.324 11.6266 57.0403C12.8001 58.0304 14.0332 58.1192 14.3811 57.2383C14.7289 56.3573 14.0597 54.8423 12.8862 53.8501" fill="#226187"/>
<path d="M25.447 30.1832C25.447 29.0256 25.1323 27.9154 24.572 27.0968C24.0117 26.2782 23.2519 25.8184 22.4595 25.8184C21.6672 25.8184 20.9074 26.2782 20.3471 27.0968C19.7868 27.9154 19.4721 29.0256 19.4721 30.1832C19.4721 30.1832 19.3642 33.1864 16.0304 33.7188L16.0355 33.7258C15.3236 33.7979 14.6529 34.2404 14.1451 34.9731C13.6373 35.7058 13.3261 36.6801 13.2678 37.7193C13.2095 38.7585 13.4081 39.7939 13.8274 40.6375C14.2468 41.4812 14.8593 42.0773 15.5537 42.3178V42.3264C15.5537 42.3264 17.7321 43.4295 18.5253 47.8492C18.629 48.6289 18.8762 49.3524 19.2405 49.9419C19.6048 50.5314 20.0723 50.9645 20.5926 51.1945C21.1129 51.4245 21.6663 51.4428 22.1931 51.2472C22.72 51.0517 23.2003 50.6498 23.5824 50.0848C23.9645 49.5199 24.2338 48.8133 24.3614 48.0413C24.4889 47.2692 24.4699 46.461 24.3062 45.7036C24.1426 44.9462 23.8406 44.2684 23.4328 43.7432C23.025 43.218 22.5269 42.8654 21.9921 42.7233L21.9943 42.7196C21.9943 42.7196 21.9755 42.7196 21.9416 42.712C21.9078 42.7045 21.8647 42.6932 21.8257 42.6862C21.3442 42.5588 19.9569 41.9376 19.383 39.0582C19.2531 38.3807 19.2659 37.6618 19.4198 36.9951C19.5365 36.6437 19.6741 36.3078 19.831 35.9916C20.3437 35.2491 20.9993 34.7529 21.7101 34.5691C21.9244 34.5299 22.1407 34.5209 22.3561 34.5422C22.3907 34.5422 22.4253 34.5492 22.4599 34.5492C23.2522 34.549 24.012 34.0891 24.5723 33.2706C25.1325 32.452 25.4473 31.3419 25.4474 30.1843" fill="#307CAB"/>
<path d="M13.8277 1.50034C13.4375 0.659206 12.2117 0.877019 11.0901 1.98706C10.6066 2.44762 10.1982 3.0577 9.89383 3.7742L9.89052 3.76667C9.89052 3.76667 9.88168 3.79625 9.86475 3.84519C9.85997 3.8581 9.85592 3.87047 9.85113 3.88337C9.75493 4.1437 9.63885 4.38726 9.50512 4.60942C9.09076 5.35359 8.55387 5.93187 7.94476 6.29007L7.90059 6.30674C7.88108 6.31427 7.86157 6.31911 7.84206 6.32557C7.7383 6.35448 7.63324 6.37245 7.52771 6.37935L7.52992 6.38258C6.9579 6.45195 6.21545 7.09356 5.59778 8.13637C4.71104 9.6331 4.41987 11.3858 4.94441 12.0511C5.46895 12.7164 6.61557 12.0425 7.50231 10.5452C7.89104 9.91267 8.17882 9.16194 8.34488 8.34719C8.36439 8.23963 8.38464 8.14336 8.40525 8.05463C8.62269 7.53269 8.91403 7.08475 9.25973 6.74089C9.60542 6.39703 9.99746 6.1652 10.4095 6.06097C10.46 6.05129 10.5074 6.03784 10.5605 6.03139C11.2605 5.98685 11.9359 5.64046 12.5014 5.0359C13.623 3.92532 14.216 2.34363 13.8266 1.50195" fill="#226187"/>
<path d="M4.31253 41.3634C4.9751 43.0381 5.04467 44.7892 4.46934 45.2743C3.894 45.7594 2.89168 44.7951 2.22984 43.1199C1.568 41.4446 1.4977 39.6946 2.07303 39.2095C2.64837 38.7244 3.65069 39.6886 4.31253 41.3634Z" fill="#5CB1DB"/>
</svg>
