<svg width="49" height="48" viewBox="0 0 49 48" fill="none" xmlns="http://www.w3.org/2000/svg">
<path d="M24.2502 0C11.0165 0 0.25 10.7661 0.25 23.9993C0.25 37.2335 11.0165 48 24.2502 48C37.4837 48 48.25 37.2333 48.25 23.9993C48.25 10.7661 37.4837 0 24.2502 0ZM24.2502 44.5596C12.9135 44.5596 3.69043 35.3362 3.69043 23.9993C3.69043 12.6631 12.9135 3.44037 24.2502 3.44037C35.5867 3.44037 44.8096 12.6631 44.8096 23.9993C44.8096 35.3362 35.5867 44.5596 24.2502 44.5596Z" fill="#B5B9C1"/>
<path d="M24.75 26.7778V29M18.8125 21.8098C19.3723 21.7778 20.0625 21.7778 20.95 21.7778H28.55C29.4375 21.7778 30.1277 21.7778 30.6875 21.8098M18.8125 21.8098C18.1139 21.8497 17.6182 21.9394 17.1952 22.1411C16.5248 22.4607 15.9798 22.9706 15.6383 23.5978C15.25 24.3109 15.25 25.2442 15.25 27.1111V28.6667C15.25 30.5336 15.25 31.4669 15.6383 32.18C15.9798 32.8072 16.5248 33.3171 17.1952 33.6367C17.9572 34 18.9548 34 20.95 34H28.55C30.5452 34 31.5427 34 32.3049 33.6367C32.9752 33.3171 33.5202 32.8072 33.8617 32.18C34.25 31.4669 34.25 30.5336 34.25 28.6667V27.1111C34.25 25.2442 34.25 24.3109 33.8617 23.5978C33.5202 22.9706 32.9752 22.4607 32.3049 22.1411C31.8818 21.9394 31.3861 21.8497 30.6875 21.8098M18.8125 21.8098V19.5556C18.8125 16.4873 21.4708 14 24.75 14C28.0292 14 30.6875 16.4873 30.6875 19.5556V21.8098" stroke="#B5B9C1" stroke-width="3.5" stroke-linecap="round" stroke-linejoin="round"/>
</svg>
