<svg width="49" height="48" viewBox="0 0 49 48" fill="none" xmlns="http://www.w3.org/2000/svg">
<path fill-rule="evenodd" clip-rule="evenodd" d="M38.4145 9.8346C42.8187 14.2366 44.9249 20.4387 44.1126 26.6115C43.2981 32.7863 39.6606 38.2321 34.269 41.3446C28.8754 44.4591 22.34 44.8883 16.588 42.505C10.8339 40.1217 6.51505 35.199 4.90279 29.1841C3.29033 23.1698 4.56946 16.7469 8.35903 11.8051C12.1507 6.86354 18.0235 3.9679 24.2506 3.9679C29.5652 3.95956 34.6628 6.07203 38.4153 9.83449L38.4145 9.8346ZM48.2497 23.9992C48.2497 16.5391 44.7789 9.50127 38.8604 4.95999C32.9394 0.416314 25.2461 -1.113 18.0376 0.818389C10.8313 2.74962 4.93159 7.9223 2.07721 14.8161C-0.77903 21.7099 -0.26442 29.5386 3.46472 35.9993C7.19595 42.4616 13.7206 46.82 21.1169 47.7949C28.5147 48.7678 35.9439 46.2449 41.2207 40.9699C45.729 36.4741 48.2577 30.3655 48.2497 23.9992ZM32.3559 18.5849C33.0872 17.8182 33.0726 16.6078 32.3205 15.8599L32.2955 15.8328V15.8349C31.5434 15.1078 30.3539 15.1037 29.5976 15.8245L24.6227 20.8286C24.3977 21.0515 24.0351 21.0515 23.8102 20.8286L18.8102 15.8287C18.4415 15.487 17.956 15.2995 17.454 15.3016C16.9498 15.3016 16.4685 15.5037 16.1123 15.8599C15.3623 16.6078 15.3457 17.8182 16.0769 18.5849L21.0185 23.6286C21.2393 23.8557 21.2373 24.2161 21.0143 24.439C19.3748 26.0806 17.7227 27.7118 16.0769 29.3451C15.3456 30.1118 15.3623 31.3222 16.1123 32.0701L16.1394 32.0972C16.5081 32.4576 16.9957 32.6701 17.5102 32.6972C17.9956 32.7222 18.4685 32.5493 18.8248 32.2201L23.8122 27.2327V27.2306C24.0372 27.0077 24.3998 27.0077 24.6247 27.2306L24.6497 27.2577L29.5976 32.1055C30.3684 32.8117 31.558 32.7846 32.2955 32.0472C33.035 31.3076 33.0621 30.1201 32.3559 29.3493L27.4184 24.4431V24.441C27.1955 24.2181 27.1934 23.8577 27.4143 23.6327L32.3559 18.5849Z" fill="black"/>
</svg>
