<svg width="12" height="12" viewBox="0 0 12 12" fill="none" xmlns="http://www.w3.org/2000/svg">
<path d="M11.6114 1.38477H7.38281V2.762H8.78174V3.69938H7.38281V4.61554H8.76743V5.53861H7.38281V6.46169H8.76743V7.38477H7.38281V8.30784H8.76743V9.23092H7.38281V10.6155H11.6114C11.8242 10.6155 11.9982 10.4351 11.9982 10.214V1.7863C11.9982 1.56523 11.8242 1.38477 11.6114 1.38477ZM11.0751 9.23092H9.22897V8.30784H11.0751V9.23092ZM11.0751 7.38477H9.22897V6.46169H11.0751V7.38477ZM11.0751 5.53861H9.22897V4.61554H11.0751V5.53861ZM11.0751 3.69246H9.22897V2.76938H11.0751V3.69246Z" fill="#4A8DB7"/>
<path d="M0 1.33338V10.6671L6.92308 12V0L0 1.33338ZM4.37908 8.34461L3.57369 6.822C3.54323 6.76523 3.51185 6.66092 3.47908 6.50908H3.46662C3.45138 6.58062 3.41538 6.68954 3.35862 6.83538L2.55046 8.34461H1.29554L2.78538 6.00738L1.42246 3.66969H2.70369L3.372 5.07138C3.42415 5.18215 3.47077 5.31369 3.51231 5.46554H3.52523C3.55154 5.37415 3.60046 5.23846 3.672 5.058L4.41508 3.66923H5.58831L4.18661 5.98708L5.62754 8.34415L4.37908 8.34461Z" fill="#4A8DB7"/>
</svg>
