<svg width="28" height="20" viewBox="0 0 28 20" fill="none" xmlns="http://www.w3.org/2000/svg">
<path fill-rule="evenodd" clip-rule="evenodd" d="M14 0.75C6.2683 0.75 0 10.25 0 10.25C0 10.25 6.2683 19.75 14 19.75C21.7317 19.75 28 10.25 28 10.25C28 10.25 21.7317 0.75 14 0.75ZM16.9789 6.04773C16.1888 4.9332 15.1173 4.30702 14 4.30693C12.8827 4.30702 11.8112 4.9332 11.0211 6.04773C10.2311 7.16226 9.78719 8.67382 9.78713 10.25C9.7872 11.8262 10.2311 13.3377 11.0211 14.4523C11.8112 15.5668 12.8827 16.193 14 16.1931C15.1173 16.193 16.1888 15.5668 16.9789 14.4523C17.7689 13.3377 18.2128 11.8262 18.2129 10.25C18.2128 8.67382 17.7689 7.16226 16.9789 6.04773ZM14 7.32293C13.4497 7.32294 12.9219 7.63128 12.5328 8.1802C12.1437 8.72913 11.9251 9.4737 11.9251 10.25C11.9251 11.0263 12.1437 11.7709 12.5328 12.3198C12.9219 12.8687 13.4497 13.1771 14 13.1771C14.5503 13.1771 15.0781 12.8687 15.4672 12.3198C15.8563 11.7709 16.0749 11.0263 16.0749 10.25C16.0749 9.4737 15.8563 8.72913 15.4672 8.1802C15.0781 7.63128 14.5503 7.32294 14 7.32293Z" fill="#A3B3C7"/>
</svg>
