<svg width="23" height="31" viewBox="0 0 23 31" fill="none" xmlns="http://www.w3.org/2000/svg">
<path d="M8.34854 27.0281L11.3274 30.2598C11.5438 30.4953 11.8045 30.6824 12.0936 30.8097C12.3827 30.937 12.6939 31.0018 13.0082 31C13.304 30.9991 13.5968 30.9399 13.8711 30.8256C14.3 30.6501 14.6677 30.3451 14.9261 29.9503C15.1844 29.5556 15.3215 29.0895 15.3193 28.613V15.0001C15.3198 14.8397 15.3668 14.6831 15.4543 14.5506L22.5976 3.72775C22.8346 3.36963 22.9724 2.95152 22.9963 2.51847C23.0201 2.08542 22.9291 1.65386 22.733 1.2703C22.5369 0.886748 22.2432 0.565744 21.8835 0.341891C21.5238 0.118039 21.1117 -0.000172033 20.6918 1.87912e-07H2.30824C1.88828 -0.000172033 1.47625 0.118039 1.11654 0.341891C0.756839 0.565744 0.463106 0.886748 0.267005 1.2703C0.0709048 1.65386 -0.020126 2.08542 0.00372486 2.51847C0.0275758 2.95152 0.165404 3.36963 0.402353 3.72775L7.57568 14.5506C7.66321 14.6831 7.71025 14.8397 7.71074 15.0001V25.3851C7.70849 25.9976 7.93725 26.5869 8.34854 27.0281ZM1.6892 2.83262C1.60994 2.71333 1.56372 2.57395 1.55554 2.42951C1.54736 2.28508 1.57753 2.14108 1.64278 2.01306C1.70804 1.88503 1.80591 1.77785 1.92583 1.70307C2.04575 1.6283 2.18316 1.58877 2.32324 1.58875H20.7068C20.8468 1.58877 20.9843 1.6283 21.1042 1.70307C21.2241 1.77785 21.322 1.88503 21.3872 2.01306C21.4525 2.14108 21.4827 2.28508 21.4745 2.42951C21.4663 2.57395 21.4201 2.71333 21.3408 2.83262L14.1675 13.6555C13.9026 14.0506 13.76 14.5195 13.7585 15.0001V28.613C13.7595 28.7724 13.7139 28.9284 13.6278 29.0607C13.5417 29.1931 13.419 29.2956 13.2758 29.3549C13.1325 29.4143 12.9753 29.4277 12.8245 29.3935C12.6738 29.3593 12.5364 29.2791 12.4304 29.1632L9.45155 25.9315C9.32022 25.7825 9.25025 25.5865 9.25646 25.3851V15.0001C9.25791 14.5202 9.11789 14.0512 8.85502 13.6555L1.6892 2.83262Z" fill="#7D859A"/>
</svg>
