<svg xmlns="http://www.w3.org/2000/svg" width="102.554" height="102.553" viewBox="0 0 102.554 102.553">
  <g id="Group_11311" data-name="Group 11311" transform="translate(-376.448 -166.223)">
    <path id="management" d="M89.955,72.92a17.034,17.034,0,1,0,17.031,17.037A17.056,17.056,0,0,0,89.955,72.92Zm1.689,27.567v1.284a1.688,1.688,0,0,1-3.376,0v-1.285A6.687,6.687,0,0,1,83.889,97.3a1.688,1.688,0,0,1,2.947-1.648A3.556,3.556,0,0,0,89.955,97.3a3.172,3.172,0,0,0,3.421-2.83c0-1.831-.758-2.235-3.772-2.87-2.57-.541-6.453-1.359-6.453-6.173a6.353,6.353,0,0,1,5.116-6.013V78.135a1.688,1.688,0,1,1,3.376,0V79.42a6.685,6.685,0,0,1,4.371,3.19,1.688,1.688,0,0,1-2.947,1.648A3.549,3.549,0,0,0,89.955,82.6c-1.89,0-3.428,1.269-3.428,2.83,0,1.831.758,2.235,3.772,2.87,2.57.541,6.453,1.359,6.453,6.173a6.35,6.35,0,0,1-5.109,6.012Z" transform="translate(363.45 153.223)" fill="#fff"/>
    <path id="management-2" data-name="management" d="M101.019,66.871l2.276-1.049a1.688,1.688,0,0,0,.981-1.533V52.983a1.688,1.688,0,0,0-.981-1.533l-8.217-3.791-2.911-7.035,3.122-8.485a1.688,1.688,0,0,0-.39-1.776l-7.986-7.992a1.689,1.689,0,0,0-1.778-.391l-8.49,3.127-7.035-2.916L65.82,13.981A1.689,1.689,0,0,0,64.287,13H52.982a1.689,1.689,0,0,0-1.533.981l-3.791,8.212-7.035,2.916-8.484-3.127a1.688,1.688,0,0,0-1.778.39L22.37,30.363a1.688,1.688,0,0,0-.39,1.777l3.127,8.484L22.19,47.659l-8.212,3.791A1.688,1.688,0,0,0,13,52.983V64.289a1.688,1.688,0,0,0,.981,1.533l8.212,3.791,2.916,7.035-3.127,8.49a1.688,1.688,0,0,0,.391,1.778L30.362,94.9a1.689,1.689,0,0,0,1.776.39l8.485-3.122,7.035,2.911,3.791,8.217a1.688,1.688,0,0,0,1.533.981H64.287a1.688,1.688,0,0,0,1.533-.981l1.049-2.276a25.6,25.6,0,1,0,34.149-34.149ZM63.206,100.9H54.062l-3.615-7.836a1.689,1.689,0,0,0-.888-.853L41.3,88.8a1.688,1.688,0,0,0-1.228-.024L31.985,91.75l-6.464-6.459,2.982-8.1a1.689,1.689,0,0,0-.024-1.23L25.057,67.71a1.69,1.69,0,0,0-.852-.886l-7.831-3.615V54.063l7.831-3.615a1.688,1.688,0,0,0,.852-.886l3.422-8.255a1.688,1.688,0,0,0,.024-1.23l-2.982-8.091,6.464-6.464L40.075,28.5a1.688,1.688,0,0,0,1.23-.024l8.255-3.422a1.688,1.688,0,0,0,.886-.852l3.615-7.83h9.145l3.615,7.83a1.688,1.688,0,0,0,.886.852l8.255,3.422a1.689,1.689,0,0,0,1.23.025l8.1-2.982,6.459,6.464-2.977,8.091a1.689,1.689,0,0,0,.024,1.228l3.416,8.255a1.69,1.69,0,0,0,.853.888l7.836,3.615v9.144l-4.355,2.007A25.606,25.606,0,0,0,65.213,96.547L63.206,100.9Zm26.748,9.461a20.41,20.41,0,1,1,20.407-20.407A20.433,20.433,0,0,1,89.955,110.363Zm-5.344-48.89a26.5,26.5,0,0,0,.153-2.837,26.129,26.129,0,1,0-26.13,26.13,26.5,26.5,0,0,0,2.837-.153A29.059,29.059,0,0,1,84.611,61.473ZM58.634,73.713A15.077,15.077,0,1,1,73.711,58.636,15.094,15.094,0,0,1,58.634,73.713Z" transform="translate(363.45 153.223)" fill="#fff"/>
  </g>
</svg>
