<svg width="48" height="48" viewBox="0 0 48 48" fill="none" xmlns="http://www.w3.org/2000/svg">
<path d="M13.188 34.8111C12.6274 34.2505 11.7177 34.2505 11.1567 34.8111L0.420778 45.5474C-0.140259 46.108 -0.140259 47.0177 0.420778 47.5787C0.701296 47.8593 1.06897 47.9995 1.43665 47.9995C1.80396 47.9995 2.17164 47.8593 2.45216 47.5787L13.188 36.8429C13.7494 36.2818 13.7494 35.3722 13.188 34.8111Z" fill="#F63939"/>
<path d="M47.5784 0.420857C47.3026 0.1451 46.9287 -0.00394879 46.5369 7.95677e-05L28.6236 0.322712C28.0472 0.333333 27.533 0.687094 27.3173 1.2214C27.1016 1.7557 27.2261 2.36764 27.6337 2.77487L31.5009 6.64207L10.8114 27.3316C10.5422 27.6011 10.3906 27.9666 10.3906 28.3475C10.3906 28.7283 10.5419 29.0938 10.8114 29.3633L18.6355 37.1867C18.916 37.4672 19.2837 37.6075 19.651 37.6075C20.0187 37.6075 20.3864 37.4672 20.6669 37.1867L41.3561 16.4976L45.2236 20.3648C45.6309 20.7724 46.2428 20.8969 46.7771 20.6812C47.3114 20.4655 47.6652 19.9513 47.6754 19.3749L47.9988 1.46236C48.0057 1.07272 47.8541 0.696615 47.5784 0.420857ZM44.864 15.942L42.3719 13.4503C42.1028 13.1808 41.7373 13.0295 41.3564 13.0295C40.9752 13.0295 40.6097 13.1808 40.3406 13.4503L19.651 34.1395L13.8587 28.3475L34.5482 7.65794C34.8177 7.38841 34.969 7.0233 34.969 6.64207C34.969 6.26121 34.8177 5.89573 34.5482 5.62656L32.0565 3.13449L45.0995 2.89975L44.864 15.942Z" fill="#F63939"/>
<path d="M1.96009 39.6549C2.32776 39.6549 2.69544 39.5143 2.97559 39.2338L9.27701 32.9327C9.83804 32.3717 9.83804 31.462 9.27701 30.901C8.71597 30.3403 7.80666 30.3403 7.24563 30.901L0.944215 37.2024C0.383178 37.7634 0.383178 38.6731 0.944215 39.2341C1.22473 39.5143 1.59241 39.6549 1.96009 39.6549Z" fill="#F63939"/>
<path d="M15.0702 38.7235L8.76843 45.0246C8.2074 45.5856 8.2074 46.4953 8.76843 47.0563C9.04895 47.3368 9.41663 47.4771 9.78431 47.4771C10.152 47.4771 10.5197 47.3368 10.8002 47.0563L17.1016 40.7549C17.6626 40.1939 17.6626 39.2842 17.1016 38.7235C16.5406 38.1625 15.6309 38.1625 15.0702 38.7235Z" fill="#F63939"/>
</svg>
