<svg width="48" height="48" viewBox="0 0 48 48" fill="none" xmlns="http://www.w3.org/2000/svg">
<path d="M24 48C17.5894 48 11.5625 45.5035 7.02938 40.9706C2.49647 36.4375 0 30.4106 0 24V22.125H3.75V24C3.75 29.4089 5.85637 34.4942 9.68109 38.3189C13.5058 42.1436 18.5911 44.25 24 44.25C29.4089 44.25 34.4942 42.1436 38.3189 38.3189C42.1436 34.4942 44.25 29.4089 44.25 24C44.25 18.5911 42.1436 13.5058 38.3189 9.68109C34.4942 5.85637 29.4089 3.75 24 3.75H22.125V0H24C30.4106 0 36.4375 2.49647 40.9706 7.02938C45.5035 11.5625 48 17.5894 48 24C48 30.4106 45.5035 36.4375 40.9706 40.9706C36.4375 45.5035 30.4106 48 24 48ZM4.57397 17.9829L1.10934 16.5478L2.54456 13.0833L6.009 14.5184L4.57397 17.9829ZM8.35519 11.0069L5.70356 8.35528L8.35528 5.70356L11.0069 8.35519L8.35519 11.0069ZM14.5184 6.009L13.0833 2.54456L16.5478 1.10934L17.9829 4.57397L14.5184 6.009Z" fill="#FDE19B"/>
<path d="M34.6074 19.0367C35.3398 18.3047 35.3398 17.1174 34.6074 16.385C33.8754 15.6529 32.6881 15.6529 31.9557 16.385L20.7028 27.6383L16.0405 22.976C15.3085 22.2436 14.1212 22.2436 13.3892 22.976C12.6567 23.7081 12.6567 24.8954 13.3892 25.6274L19.3771 31.6157C20.1095 32.3477 21.2964 32.3477 22.0288 31.6157L34.6074 19.0367Z" fill="#FDE19B"/>
</svg>
