<svg width="48" height="48" viewBox="0 0 48 48" fill="none" xmlns="http://www.w3.org/2000/svg">
<path d="M24.0002 0C10.7665 0 0 10.7661 0 23.9993C0 37.2335 10.7665 48 24.0002 48C37.2337 48 48 37.2333 48 23.9993C48 10.7661 37.2337 0 24.0002 0ZM24.0002 44.5596C12.6635 44.5596 3.44043 35.3362 3.44043 23.9993C3.44043 12.6631 12.6635 3.44037 24.0002 3.44037C35.3367 3.44037 44.5596 12.6631 44.5596 23.9993C44.5596 35.3362 35.3367 44.5596 24.0002 44.5596Z" fill="#FFC945"/>
<path d="M36.3441 23.5994H25.0654V11.271C25.0654 10.321 24.2955 9.55078 23.3452 9.55078C22.3952 9.55078 21.625 10.321 21.625 11.271V25.3196C21.625 26.2696 22.3952 27.0398 23.3452 27.0398H36.3441C37.2943 27.0398 38.0643 26.2696 38.0643 25.3196C38.0643 24.3696 37.2941 23.5994 36.3441 23.5994Z" fill="#FFC945"/>
</svg>
