<svg width="28" height="28" viewBox="0 0 28 28" fill="none" xmlns="http://www.w3.org/2000/svg">
<path d="M25.1212 5.51239L26.3438 5.51326L26.345 3.87291L22.5907 3.87018L22.1064 7.65264L23.7337 7.86094L23.8941 6.60876C25.4918 8.73501 26.3575 11.3075 26.3594 14.0123C26.3618 17.3129 25.0786 20.4149 22.7463 22.7469C20.416 25.0768 17.3173 26.3596 14.0196 26.3595H14.0103C10.7087 26.3571 7.60386 25.0693 5.2675 22.7333C2.93109 20.3974 1.64303 17.2929 1.64063 13.9919C1.63822 10.6913 2.92141 7.58926 5.25378 5.25727C8.75306 1.75858 13.9868 0.688404 18.5873 2.53088L19.1974 1.00816C13.9863 -1.07893 8.05793 0.133654 4.09375 4.09735C1.45108 6.73952 -0.00273052 10.2539 3.85015e-06 13.9931C0.00273822 17.7319 1.46142 21.2478 4.10731 23.8933C6.7532 26.5388 10.2697 27.9973 14.009 28H14.0195C17.7552 27.9999 21.2663 26.5465 23.9063 23.9069C26.5489 21.2647 28.0027 17.7504 28 14.0112C27.9978 10.8992 26.986 7.94215 25.1212 5.51239Z" fill="#A3B3C7"/>
<path d="M14 5.4707C9.29578 5.4707 5.46875 9.29719 5.46875 14.0009C5.46875 18.7045 9.29578 22.531 14 22.531C18.7042 22.531 22.5312 18.7045 22.5312 14.0009C22.5312 9.29719 18.7042 5.4707 14 5.4707ZM17.5164 14.8212H13.1797V10.485H14.8203V13.1805H17.5164V14.8212Z" fill="#A3B3C7"/>
</svg>
