<svg width="18" height="23" viewBox="0 0 18 23" fill="none" xmlns="http://www.w3.org/2000/svg">
<path d="M15.3529 8.29412H13.7631V4.66632C13.7631 2.09329 11.6256 0 8.99837 0C6.37112 0 4.23366 2.09329 4.23366 4.66632V8.29412H2.64706C1.18747 8.29412 0 9.48159 0 10.9412V19.9412C0 21.4008 1.18747 22.5882 2.64706 22.5882H15.3529C16.8125 22.5882 18 21.4008 18 19.9412V10.9412C18 9.48159 16.8125 8.29412 15.3529 8.29412ZM5.99837 4.66632C5.99837 3.06635 7.34418 1.76471 8.99837 1.76471C10.6526 1.76471 11.9984 3.06635 11.9984 4.66632V8.29412H5.99837V4.66632ZM16.2353 19.9412C16.2353 20.4277 15.8395 20.8235 15.3529 20.8235H2.64706C2.16053 20.8235 1.76471 20.4277 1.76471 19.9412V10.9412C1.76471 10.4546 2.16053 10.0588 2.64706 10.0588H15.3529C15.8395 10.0588 16.2353 10.4546 16.2353 10.9412V19.9412Z" fill="#767676"/>
<path d="M9.00003 12.6177C8.09848 12.6177 7.36768 13.3485 7.36768 14.25C7.36768 14.8257 7.66591 15.3314 8.11604 15.622V17.5589C8.11604 18.0461 8.51107 18.4412 8.9984 18.4412C9.48568 18.4412 9.88075 18.0461 9.88075 17.5589V15.6241C10.3327 15.3338 10.6324 14.8271 10.6324 14.25C10.6324 13.3485 9.90157 12.6177 9.00003 12.6177Z" fill="#767676"/>
</svg>
