<svg width="20" height="20" viewBox="0 0 20 20" fill="none" xmlns="http://www.w3.org/2000/svg">
<path d="M10 3.90626C11.0787 3.90626 11.9531 3.03181 11.9531 1.95313C11.9531 0.874446 11.0787 0 10 0C8.92132 0 8.04688 0.874446 8.04688 1.95313C8.04688 3.03181 8.92132 3.90626 10 3.90626Z" fill="#EAF1F4"/>
<path d="M6.875 8.20243H13.125C13.4486 8.20243 13.711 7.94009 13.711 7.61649V7.22587C13.711 5.98411 13.0978 4.88297 12.1584 4.20898C11.597 4.74629 10.8366 5.07742 10 5.07742C9.16333 5.07742 8.40305 4.74629 7.84157 4.20898C6.90223 4.88297 6.28906 5.98411 6.28906 7.22587V7.61649C6.28906 7.94009 6.55141 8.20243 6.875 8.20243Z" fill="#EAF1F4"/>
<path d="M19.0235 3.98438C17.9448 3.98438 17.0703 4.85883 17.0703 5.9375V8.84806C17.5115 9.11642 17.8871 9.49318 18.1529 9.95353C18.7452 10.9795 18.3925 12.2961 17.3665 12.8884L15.5149 13.9574C15.2425 14.1147 14.8946 14.0288 14.7266 13.7629C14.5488 13.4816 14.6407 13.1089 14.929 12.9425L16.7806 11.8735C17.2477 11.6038 17.4077 11.0066 17.1381 10.5395C16.5987 9.60532 15.4042 9.28524 14.47 9.82458L12.4805 10.9733C11.336 11.6341 10.625 12.8655 10.625 14.1871V19.4141C10.625 19.7377 10.8873 20 11.2109 20H15.8984C16.222 20 16.4844 19.7377 16.4844 19.4141V17.8174C16.4844 17.0282 16.8417 16.2978 17.4646 15.8132L18.016 15.3844C19.2769 14.4037 20 12.9252 20 11.3278V4.96094C20 4.4216 19.5628 3.98438 19.0235 3.98438Z" fill="#EAF1F4"/>
<path d="M7.51951 10.9733L5.52997 9.82462C4.59579 9.28528 3.4013 9.60536 2.86196 10.5395C2.59227 11.0066 2.75231 11.6038 3.21942 11.8735L5.07106 12.9426C5.35927 13.109 5.45118 13.4817 5.27345 13.763C5.10544 14.0288 4.75751 14.1147 4.48513 13.9574L2.63348 12.8884C1.60754 12.2961 1.25481 10.9795 1.84711 9.95357C2.11289 9.49321 2.48856 9.11646 2.92969 8.8481V5.9375C2.92969 4.85883 2.05524 3.98438 0.976564 3.98438C0.437227 3.98438 0 4.4216 0 4.96094V11.3278C0 12.9252 0.723166 14.4037 1.98403 15.3844L2.5354 15.8133C3.15833 16.2978 3.51559 17.0283 3.51559 17.8174V19.4141C3.51559 19.7377 3.77794 20 4.10153 20H8.78904C9.11264 20 9.37498 19.7377 9.37498 19.4141V14.1871C9.37498 12.8655 8.664 11.6341 7.51951 10.9733Z" fill="#EAF1F4"/>
</svg>
