<svg width="20" height="20" viewBox="0 0 20 20" fill="none" xmlns="http://www.w3.org/2000/svg">
<path d="M14.8912 3.90691L11.3281 0.34375V3.90691H14.8912Z" fill="#EAF1F4"/>
<path d="M10.1562 4.49219V0H2.14844C0.963789 0 0 0.963789 0 2.14844V17.8516C0 19.0362 0.963789 20 2.14844 20H13.0859C14.2706 20 15.2344 19.0362 15.2344 17.8516V11.3672H11.3755L12.719 12.7107C12.9478 12.9395 12.9478 13.3105 12.719 13.5393C12.6046 13.6537 12.4546 13.7109 12.3047 13.7109C12.1547 13.7109 12.0048 13.6537 11.8904 13.5393L9.54664 11.1955C9.31781 10.9667 9.31781 10.5957 9.54664 10.3669L11.8904 8.02316C12.1192 7.79434 12.4902 7.79434 12.719 8.02316C12.9479 8.25199 12.9479 8.62297 12.719 8.8518L11.3755 10.1953H15.2344V5.07812H10.7422C10.4186 5.07812 10.1562 4.81578 10.1562 4.49219ZM2.92969 11.3672H8.00781C8.33141 11.3672 8.59375 11.6295 8.59375 11.9531C8.59375 12.2767 8.33141 12.5391 8.00781 12.5391H2.92969C2.60609 12.5391 2.34375 12.2767 2.34375 11.9531C2.34375 11.6295 2.60609 11.3672 2.92969 11.3672ZM2.34375 9.60938C2.34375 9.28578 2.60609 9.02344 2.92969 9.02344H8.00781C8.33141 9.02344 8.59375 9.28578 8.59375 9.60938C8.59375 9.93297 8.33141 10.1953 8.00781 10.1953H2.92969C2.60609 10.1953 2.34375 9.93297 2.34375 9.60938ZM9.57031 13.7109C9.89391 13.7109 10.1562 13.9733 10.1562 14.2969C10.1562 14.6205 9.89391 14.8828 9.57031 14.8828H2.92969C2.60609 14.8828 2.34375 14.6205 2.34375 14.2969C2.34375 13.9733 2.60609 13.7109 2.92969 13.7109H9.57031ZM9.57031 7.85156H2.92969C2.60609 7.85156 2.34375 7.58922 2.34375 7.26562C2.34375 6.94203 2.60609 6.67969 2.92969 6.67969H9.57031C9.89391 6.67969 10.1562 6.94203 10.1562 7.26562C10.1562 7.58922 9.89391 7.85156 9.57031 7.85156Z" fill="#EAF1F4"/>
<path d="M19.4141 10.1953H15.2344V11.3672H19.4141C19.7377 11.3672 20 11.1048 20 10.7812C20 10.4577 19.7377 10.1953 19.4141 10.1953Z" fill="#EAF1F4"/>
</svg>
