<svg width="20" height="20" viewBox="0 0 20 20" fill="none" xmlns="http://www.w3.org/2000/svg">
<path d="M8.82031 0H11.1772V1.651H8.82031V0Z" fill="#EAF1F4"/>
<path d="M14.6839 8.46875H5.31641C5.4249 9.00723 5.90158 9.41403 6.47165 9.41403H13.529C14.0989 9.41403 14.5756 9.00723 14.6839 8.46875Z" fill="#EAF1F4"/>
<path d="M14.1133 10.5859H16.47V12.2369H14.1133V10.5859Z" fill="#EAF1F4"/>
<path d="M3.52734 10.5859H5.88422V12.2369H3.52734V10.5859Z" fill="#EAF1F4"/>
<path d="M14.707 1.17844C14.707 0.528564 14.1785 0 13.5287 0H12.3503V2.23694C12.3503 2.56058 12.0879 2.82288 11.7644 2.82288H8.23563C7.91199 2.82288 7.64969 2.56058 7.64969 2.23694V0H6.47141C5.82153 0 5.29297 0.528564 5.29297 1.17844V7.29691H14.707V1.17844Z" fill="#EAF1F4"/>
<path d="M1.17868 20H8.23587C8.80594 20 9.28262 19.5932 9.39096 19.0547H0.0234375C0.131928 19.5932 0.608612 20 1.17868 20Z" fill="#EAF1F4"/>
<path d="M18.8217 10.5859H17.6433V12.8229C17.6433 13.1465 17.3808 13.4088 17.0573 13.4088H13.5287C13.2051 13.4088 12.9428 13.1465 12.9428 12.8229V10.5859H11.7644C11.1145 10.5859 10.5859 11.1145 10.5859 11.7644V17.8828H20V11.7644C20 11.1145 19.4714 10.5859 18.8217 10.5859Z" fill="#EAF1F4"/>
<path d="M11.7645 20H18.8218C19.3917 20 19.8684 19.5932 19.9767 19.0547H10.6094C10.7177 19.5932 11.1944 20 11.7645 20Z" fill="#EAF1F4"/>
<path d="M8.23563 10.5859H7.05734V12.8229C7.05734 13.1465 6.79489 13.4088 6.47141 13.4088H2.94266C2.61917 13.4088 2.35672 13.1465 2.35672 12.8229V10.5859H1.17844C0.528564 10.5859 0 11.1145 0 11.7644V17.8828H9.41406V11.7644C9.41406 11.1145 8.8855 10.5859 8.23563 10.5859Z" fill="#EAF1F4"/>
</svg>
