<svg width="20" height="20" viewBox="0 0 20 20" fill="none" xmlns="http://www.w3.org/2000/svg">
<path d="M1.00371 18.9752C1.54895 19.5202 2.48695 19.5498 3.04121 18.9955L8.73918 13.2976C9.13078 13.4474 9.55578 13.5297 10 13.5297C11.9496 13.5297 13.5305 11.9488 13.5305 9.99922C13.5305 9.45547 13.4074 8.94062 13.1879 8.48086L10.4895 11.1793H9.51328L8.82305 10.4887V9.51289L11.5227 6.81328C11.0617 6.59258 10.5453 6.46875 10 6.46875C8.05039 6.46875 6.46953 8.04961 6.46953 9.99922C6.46953 10.4435 6.55184 10.8684 6.70164 11.26L1.00371 16.958C0.44668 17.5151 0.44668 18.4182 1.00371 18.9752Z" fill="#EAF1F4"/>
<path d="M20 11.25V8.75L18.6348 8.5793C18.5402 8.00273 18.3898 7.44531 18.1891 6.9125L19.2852 6.08242L18.0352 3.91758L16.7668 4.45273C16.4012 4.00742 15.9926 3.59883 15.5473 3.2332L16.0824 1.96484L13.9176 0.714844L13.0875 1.81094C12.5547 1.61016 11.9973 1.45977 11.4207 1.36523L11.25 0H8.75L8.5793 1.36523C8.00273 1.45977 7.44531 1.61016 6.9125 1.81094L6.08242 0.714844L3.91758 1.96484L4.45273 3.2332C4.00742 3.59883 3.59883 4.00742 3.2332 4.45273L1.96484 3.91758L0.714844 6.08242L1.81094 6.9125C1.61016 7.44531 1.45977 8.00273 1.36523 8.5793L0 8.75V11.25L1.36523 11.4207C1.45977 11.9973 1.61016 12.5547 1.81094 13.0875L0.714844 13.9176L1.32715 14.978L3.96754 12.3377C3.68539 11.6123 3.53027 10.8239 3.53027 10C3.53027 6.43258 6.43258 3.53027 10 3.53027C13.5674 3.53027 16.4697 6.43258 16.4697 10C16.4697 13.5674 13.5674 16.4697 10 16.4697C9.17605 16.4697 8.38781 16.3145 7.66246 16.0323L5.02199 18.6728L6.08242 19.2852L6.9125 18.1891C7.44531 18.3898 8.00273 18.5402 8.5793 18.6348L8.75 20H11.25L11.4207 18.6348C11.9973 18.5402 12.5547 18.3898 13.0875 18.1891L13.9176 19.2852L16.0824 18.0352L15.5473 16.7668C15.9926 16.4012 16.4012 15.9926 16.7668 15.5473L18.0352 16.0824L19.2852 13.9176L18.1891 13.0875C18.3898 12.5547 18.5402 11.9973 18.6348 11.4207L20 11.25Z" fill="#EAF1F4"/>
</svg>
