<svg width="16" height="20" viewBox="0 0 16 20" fill="none" xmlns="http://www.w3.org/2000/svg">
<path d="M0 0.585938V15.8984C0 16.2223 0.26207 16.4844 0.585938 16.4844H11.1328C11.4567 16.4844 11.7188 16.2223 11.7188 15.8984V0.585938C11.7188 0.26207 11.4567 0 11.1328 0H0.585938C0.26207 0 0 0.26207 0 0.585938ZM9.375 13.5156H7.03125C6.70738 13.5156 6.44531 13.2536 6.44531 12.9297C6.44531 12.6058 6.70738 12.3438 7.03125 12.3438H9.375C9.69887 12.3438 9.96094 12.6058 9.96094 12.9297C9.96094 13.2536 9.69887 13.5156 9.375 13.5156ZM2.34375 2.96875H5.85938C6.18324 2.96875 6.44531 3.23082 6.44531 3.55469C6.44531 3.87855 6.18324 4.14062 5.85938 4.14062H2.34375C2.01988 4.14062 1.75781 3.87855 1.75781 3.55469C1.75781 3.23082 2.01988 2.96875 2.34375 2.96875ZM2.34375 5.3125H9.375C9.69887 5.3125 9.96094 5.57457 9.96094 5.89844C9.96094 6.2223 9.69887 6.48438 9.375 6.48438H2.34375C2.01988 6.48438 1.75781 6.2223 1.75781 5.89844C1.75781 5.57457 2.01988 5.3125 2.34375 5.3125ZM2.34375 7.65625H9.375C9.69887 7.65625 9.96094 7.91832 9.96094 8.24219C9.96094 8.56605 9.69887 8.82812 9.375 8.82812H2.34375C2.01988 8.82812 1.75781 8.56605 1.75781 8.24219C1.75781 7.91832 2.01988 7.65625 2.34375 7.65625ZM2.34375 10H9.375C9.69887 10 9.96094 10.2621 9.96094 10.5859C9.96094 10.9098 9.69887 11.1719 9.375 11.1719H2.34375C2.01988 11.1719 1.75781 10.9098 1.75781 10.5859C1.75781 10.2621 2.01988 10 2.34375 10Z" fill="#EAF1F4"/>
<path d="M4.10156 20H14.6484C14.9723 20 15.2344 19.7379 15.2344 19.4141V4.14062C15.2344 3.81676 14.9723 3.55469 14.6484 3.55469H12.8906V15.8984C12.8906 16.8677 12.1021 17.6562 11.1328 17.6562H3.51562V19.4141C3.51562 19.7379 3.7777 20 4.10156 20Z" fill="#EAF1F4"/>
</svg>
