<svg width="20" height="20" viewBox="0 0 20 20" fill="none" xmlns="http://www.w3.org/2000/svg">
<path d="M4.33203 0C4.17266 0 4.02383 0.0652344 3.91758 0.171484L0.182031 3.90742C0.0566406 4.03281 0 4.18281 0 4.33164H4.33203V0Z" fill="#EAF1F4"/>
<path d="M11.5871 16.1348C11.4262 16.1824 11.2578 16.2074 11.0883 16.2074C10.6199 16.2074 10.1797 16.0254 9.84805 15.6953L8.4457 14.2988C7.97148 13.8277 7.81836 13.1488 8.00234 12.5426C7.44336 12.2457 7.07031 11.6582 7.07031 10.9898V9.01016C7.07031 8.34844 7.43594 7.76602 7.98555 7.46641C7.80781 6.8668 7.95937 6.19609 8.42578 5.72695L9.82227 4.32461C10.1543 3.99023 10.5969 3.80625 11.0684 3.80625C11.2418 3.80625 11.4137 3.83242 11.5781 3.88242C11.875 3.32266 12.4625 2.94922 13.1313 2.94922H14.707V0.585938C14.707 0.2625 14.4445 0 14.1211 0H5.50391V4.91758C5.50391 5.24102 5.24141 5.50352 4.91797 5.50352H0V19.4141C0 19.7375 0.2625 20 0.585938 20H14.1211C14.4445 20 14.707 19.7375 14.707 19.4141V17.0508H13.1313C12.4691 17.0508 11.8867 16.6848 11.5871 16.1348ZM5.33516 17.2223H1.78047C1.45703 17.2223 1.19453 16.9602 1.19453 16.6363C1.19453 16.3129 1.45703 16.0504 1.78047 16.0504H5.33516C5.65859 16.0504 5.92109 16.3129 5.92109 16.6363C5.92109 16.9602 5.65859 17.2223 5.33516 17.2223ZM5.33516 14.8785H1.78047C1.45703 14.8785 1.19453 14.6164 1.19453 14.2926C1.19453 13.9691 1.45703 13.7066 1.78047 13.7066H5.33516C5.65859 13.7066 5.92109 13.9691 5.92109 14.2926C5.92109 14.6164 5.65859 14.8785 5.33516 14.8785ZM5.33516 12.5348H1.78047C1.45703 12.5348 1.19453 12.2727 1.19453 11.9488C1.19453 11.6254 1.45703 11.3629 1.78047 11.3629H5.33516C5.65859 11.3629 5.92109 11.6254 5.92109 11.9488C5.92109 12.2727 5.65859 12.5348 5.33516 12.5348ZM5.33516 10.191H1.78047C1.45703 10.191 1.19453 9.92891 1.19453 9.60508C1.19453 9.28164 1.45703 9.01914 1.78047 9.01914H5.33516C5.65859 9.01914 5.92109 9.28164 5.92109 9.60508C5.92109 9.92891 5.65859 10.191 5.33516 10.191ZM5.33516 7.84727H1.78047C1.45703 7.84727 1.19453 7.58516 1.19453 7.26133C1.19453 6.93789 1.45703 6.67539 1.78047 6.67539H5.33516C5.65859 6.67539 5.92109 6.93789 5.92109 7.26133C5.92109 7.58516 5.65859 7.84727 5.33516 7.84727Z" fill="#EAF1F4"/>
<path d="M19.4785 8.42773L18.2363 8.28984L19.0152 7.3125C19.2012 7.07891 19.182 6.74258 18.9703 6.53203L17.5672 5.13516C17.3559 4.92461 17.0195 4.90664 16.7867 5.09375L15.8289 5.86406L15.6934 4.64258C15.6605 4.3457 15.4098 4.12109 15.1109 4.12109H13.1313C12.8324 4.12109 12.5816 4.3457 12.5488 4.64258L12.4109 5.88477L11.4336 5.10586C11.2 4.91992 10.8637 4.93906 10.6531 5.15078L9.25625 6.55391C9.0457 6.76562 9.02773 7.10156 9.21484 7.33437L9.98516 8.29219L8.76367 8.42773C8.4668 8.46055 8.24219 8.71172 8.24219 9.01016V10.9898C8.24219 11.2883 8.4668 11.5395 8.76367 11.5723L10.0059 11.7102L9.22695 12.6875C9.04102 12.9211 9.06016 13.2574 9.27188 13.468L10.675 14.8648C10.8863 15.0754 11.2227 15.0934 11.4555 14.9062L12.4133 14.1359L12.5488 15.3574C12.5816 15.6543 12.8324 15.8789 13.1313 15.8789H15.1109C15.4098 15.8789 15.6605 15.6543 15.6934 15.3574L15.8313 14.1152L16.8086 14.8941C17.0422 15.0801 17.3785 15.0609 17.5891 14.8492L18.9859 13.4461C19.1965 13.2344 19.2145 12.8984 19.0273 12.6656L18.257 11.7078L19.4785 11.5723C19.7754 11.5395 20 11.2883 20 10.9898V9.01016C20 8.71172 19.7754 8.46055 19.4785 8.42773ZM14.1211 12.2027C12.9066 12.2027 11.9184 11.2145 11.9184 10C11.9184 8.78555 12.9066 7.79727 14.1211 7.79727C15.3355 7.79727 16.3238 8.78555 16.3238 10C16.3238 11.2145 15.3355 12.2027 14.1211 12.2027Z" fill="#EAF1F4"/>
</svg>
