<svg width="211" height="67" viewBox="0 0 211 67" fill="none" xmlns="http://www.w3.org/2000/svg">
<mask id="mask0_6748_4394" style="mask-type:luminance" maskUnits="userSpaceOnUse" x="0" y="0" width="211" height="67">
<path d="M210.331 0H0V66.9999H210.331V0Z" fill="white"/>
</mask>
<g mask="url(#mask0_6748_4394)">
<path d="M65.9523 43.0667L62.6285 43.0379L72.4689 16.9405L75.7415 16.9689L85.1277 43.2331L81.804 43.2043L74.1716 21.0974L73.967 21.0957L65.9523 43.0667ZM67.2682 32.8505L80.6654 32.9667L80.641 35.7791L67.2438 35.6629L67.2682 32.8505ZM84.9181 19.8611L84.9425 17.0487L104.578 17.219L104.554 20.0314L96.3211 19.96L96.1184 43.3284L92.9481 43.3009L93.1508 19.9325L84.9181 19.8611ZM130.358 30.534C130.334 33.2953 129.815 35.6772 128.8 37.6799C127.785 39.6825 126.404 41.2217 124.656 42.2975C122.908 43.3733 120.918 43.9015 118.685 43.8821C116.452 43.8628 114.471 43.3001 112.742 42.1942C111.013 41.0882 109.658 39.5253 108.679 37.5053C107.699 35.4854 107.221 33.0948 107.245 30.3335C107.269 27.5723 107.788 25.1903 108.803 23.1877C109.817 21.1851 111.199 19.6458 112.947 18.5701C114.695 17.4943 116.685 16.9661 118.918 16.9854C121.151 17.0048 123.132 17.5675 124.861 18.6734C126.59 19.7794 127.945 21.3423 128.924 23.3622C129.904 25.3822 130.382 27.7728 130.358 30.534ZM127.29 30.5074C127.309 28.2405 126.947 26.3239 126.202 24.7577C125.465 23.1916 124.457 22.0024 123.177 21.1901C121.906 20.378 120.478 19.965 118.892 19.9512C117.307 19.9375 115.868 20.3256 114.574 21.1155C113.289 21.9055 112.26 23.0771 111.488 24.6301C110.724 26.1832 110.333 28.0932 110.313 30.3602C110.293 32.6271 110.652 34.5436 111.388 36.1098C112.133 37.6759 113.141 38.8651 114.413 39.6773C115.693 40.4896 117.125 40.9026 118.71 40.9163C120.296 40.9301 121.731 40.542 123.016 39.7519C124.31 38.962 125.339 37.7905 126.102 36.2374C126.874 34.6844 127.27 32.7744 127.29 30.5074ZM135.802 17.4899L139.586 17.5227L148.295 39.332L148.602 39.3347L157.688 17.6797L161.472 17.7125L161.245 43.8934L158.279 43.8676L158.451 23.9763L158.196 23.9741L149.842 43.7944L146.978 43.7696L138.969 23.8073L138.713 23.8051L138.541 43.6964L135.575 43.6707L135.802 17.4899ZM182.089 24.4371C181.947 23.1403 181.334 22.1293 180.249 21.404C179.164 20.6786 177.829 20.3091 176.244 20.2953C175.085 20.2853 174.069 20.464 173.197 20.8314C172.333 21.1989 171.655 21.7087 171.164 22.3607C170.681 23.0128 170.436 23.7564 170.428 24.5916C170.422 25.2905 170.583 25.8927 170.911 26.3984C171.248 26.8957 171.679 27.3128 172.204 27.6497C172.73 27.9782 173.282 28.2514 173.859 28.4695C174.437 28.6791 174.968 28.8499 175.453 28.982L178.106 29.7209C178.786 29.9058 179.542 30.1595 180.375 30.4821C181.216 30.8047 182.017 31.2421 182.78 31.7942C183.55 32.3378 184.184 33.0337 184.679 33.8818C185.175 34.7299 185.417 35.7675 185.406 36.9947C185.394 38.4095 185.012 39.6846 184.261 40.8202C183.518 41.9558 182.436 42.8541 181.016 43.5151C179.604 44.1762 177.892 44.498 175.881 44.4806C174.006 44.4643 172.385 44.1477 171.018 43.5307C169.66 42.9138 168.593 42.0607 167.819 40.9716C167.053 39.8825 166.625 38.6217 166.535 37.189L169.807 37.2174C169.884 38.2067 170.209 39.0278 170.783 39.6805C171.366 40.3248 172.103 40.8085 172.995 41.1315C173.896 41.4462 174.866 41.608 175.906 41.617C177.116 41.6275 178.204 41.441 179.171 41.0573C180.137 40.6651 180.905 40.1177 181.473 39.4153C182.042 38.7043 182.331 37.8715 182.339 36.917C182.346 36.0477 182.11 35.3382 181.629 34.7886C181.148 34.2389 180.512 33.7902 179.723 33.4425C178.933 33.0947 178.079 32.789 177.161 32.5253L173.947 31.5769C171.907 30.9712 170.295 30.1177 169.111 29.0164C167.928 27.9152 167.344 26.4825 167.359 24.7184C167.372 23.2525 167.779 21.9776 168.581 20.8936C169.392 19.8012 170.473 18.9583 171.825 18.3649C173.185 17.763 174.7 17.4693 176.371 17.4838C178.058 17.4984 179.556 17.814 180.863 18.4305C182.17 19.0384 183.203 19.8656 183.961 20.912C184.727 21.9584 185.126 23.1423 185.157 24.4637L182.089 24.4371Z" fill="#163A51"/>
<path d="M41.3273 31.4415L40.6367 30.7639C42.0347 29.3393 44.7773 26.5206 45.152 26.0566L45.9027 26.6673C45.4072 27.2781 41.4933 31.2687 41.3273 31.4366" fill="#307CAB"/>
<path d="M29.2996 59.4998L28.6406 58.7913C30.1024 57.4286 32.9725 54.7436 33.3683 54.3008L34.0893 54.9449C33.5653 55.5315 29.4737 59.3382 29.2996 59.4998Z" fill="#307CAB"/>
<path d="M45.4864 41.186C44.8744 40.6905 40.8689 36.7946 40.6992 36.6286L41.3737 35.9355C42.8045 37.3279 45.6326 40.0606 46.0946 40.4341L45.4864 41.186Z" fill="#307CAB"/>
<path d="M34.726 64.6831C34.0812 64.2328 29.8143 60.6237 29.6328 60.4713L30.2578 59.7324C31.782 61.022 34.7935 63.5503 35.2803 63.8909L34.726 64.6831Z" fill="#307CAB"/>
<path d="M23.675 40.327C23.0501 39.8488 18.9442 36.0576 18.7695 35.8966L19.4255 35.1855C20.8921 36.5401 23.7908 39.1979 24.2628 39.5584L23.675 40.327Z" fill="#307CAB"/>
<path d="M15.5305 15.1258C14.9055 14.6477 10.7997 10.8565 10.625 10.6954L11.2815 9.98438C12.7476 11.339 15.6463 13.9967 16.1183 14.3572L15.5305 15.1258Z" fill="#307CAB"/>
<path d="M44.3598 22.3481C43.6989 21.9202 39.3081 18.4634 39.1211 18.3166L39.72 17.5566C41.2883 18.7917 44.387 21.211 44.8856 21.5355L44.3598 22.3481Z" fill="#307CAB"/>
<path d="M6.78828 39.6844C6.16333 39.2063 2.05748 35.4151 1.88281 35.254L2.53811 34.543C4.00418 35.8975 6.90287 38.5553 7.37483 38.9158L6.78828 39.6844Z" fill="#307CAB"/>
<path d="M4.9458 48.2876L4.24219 47.6243C5.61225 46.1718 8.29911 43.3016 8.66516 42.834L9.42762 43.4292C8.94326 44.0486 5.10932 48.1154 4.94642 48.2888" fill="#307CAB"/>
<path d="M52.6358 24.5366C52.6358 25.5309 52.3409 26.5027 51.7886 27.3294C51.2362 28.1561 50.4511 28.8004 49.5326 29.1809C48.6141 29.5613 47.6033 29.6609 46.6282 29.4669C45.6531 29.273 44.7574 28.7942 44.0544 28.0912C43.3514 27.3881 42.8726 26.4924 42.6786 25.5173C42.4847 24.5422 42.5842 23.5315 42.9647 22.6129C43.3452 21.6944 43.9895 20.9093 44.8161 20.3569C45.6428 19.8046 46.6147 19.5098 47.6089 19.5098C48.269 19.5098 48.9227 19.6398 49.5326 19.8924C50.1425 20.145 50.6966 20.5153 51.1634 20.9821C51.6302 21.4489 52.0005 22.003 52.2531 22.6129C52.5057 23.2228 52.6358 23.8765 52.6358 24.5366Z" fill="#92D9F8"/>
<path d="M52.6358 43.6773C52.6358 44.6715 52.3409 45.6434 51.7886 46.47C51.2362 47.2967 50.4511 47.941 49.5326 48.3215C48.6141 48.702 47.6033 48.8015 46.6282 48.6075C45.6531 48.4136 44.7574 47.9348 44.0544 47.2318C43.3514 46.5288 42.8726 45.6331 42.6786 44.658C42.4847 43.6828 42.5842 42.6721 42.9647 41.7536C43.3452 40.835 43.9895 40.0499 44.8161 39.4976C45.6428 38.9452 46.6147 38.6504 47.6089 38.6504C48.9421 38.6504 50.2207 39.18 51.1634 40.1227C52.1062 41.0654 52.6358 42.3441 52.6358 43.6773Z" fill="#92D9F8"/>
<path d="M13.1703 25.4295C13.1703 27.6592 11.5896 29.4703 9.63983 29.4703C7.69003 29.4703 6.10938 27.6611 6.10938 25.4295C6.10938 23.1979 7.69003 21.3887 9.63983 21.3887C11.5896 21.3887 13.1703 23.1979 13.1703 25.4295Z" fill="#5CB1DB"/>
<path d="M4.68993 33.9016C4.68993 36.1314 3.64008 37.9424 2.34496 37.9424C1.04984 37.9424 0 36.1332 0 33.9016C0 31.67 1.04984 29.8633 2.34496 29.8633C3.64008 29.8633 4.68993 31.6725 4.68993 33.9041" fill="#226187"/>
<path d="M5.59129 20.8721C4.34882 22.7203 2.73782 23.8129 1.99394 23.3124C1.25007 22.812 1.6539 20.908 2.897 19.0598C4.14009 17.2116 5.74985 16.119 6.49434 16.6194C7.23883 17.1199 6.83438 19.0239 5.59129 20.8721Z" fill="#226187"/>
<path d="M40.8927 2.89937C40.8927 4.38588 39.0742 5.59366 36.8308 5.59366C34.5874 5.59366 32.7695 4.38712 32.7695 2.89937C32.7695 1.41163 34.5874 0.205078 36.8302 0.205078C39.0729 0.205078 40.8927 1.41163 40.8927 2.89937Z" fill="#92D9F8"/>
<path d="M27.7036 61.8891C25.4739 61.8891 23.6641 60.5017 23.6641 58.7922C23.6641 57.0827 25.4726 55.6953 27.7036 55.6953C29.9346 55.6953 31.7432 57.0827 31.7432 58.7922C31.7432 60.5017 29.9346 61.8891 27.7036 61.8891Z" fill="#5CB1DB"/>
<path d="M37.2037 67.0029C34.938 67.0029 33.1016 65.8756 33.1016 64.4839C33.1016 63.0921 34.938 61.9648 37.2037 61.9648C39.4694 61.9648 41.3058 63.0921 41.3058 64.4839C41.3058 65.8756 39.4694 67.0029 37.2037 67.0029Z" fill="#5CB1DB"/>
<path d="M37.5577 12.0747C37.0389 12.112 36.518 12.1101 35.9994 12.0692C34.7123 11.871 32.6894 11.041 31.8601 7.89952C31.7275 7.11234 31.3762 6.37835 30.8462 5.78141C30.3162 5.18447 29.629 4.74867 28.863 4.52383C28.0971 4.29898 27.2834 4.29415 26.5148 4.50989C25.7463 4.72563 25.0539 5.15324 24.5169 5.74384C23.9799 6.33445 23.6198 7.06422 23.4779 7.84977C23.336 8.63531 23.418 9.44493 23.7144 10.1861C24.0109 10.9273 24.5099 11.5701 25.1544 12.0411C25.7989 12.5121 26.5629 12.7922 27.3591 12.8496C28.9137 13.1686 32.4788 14.2816 33.5782 17.8771L33.5882 17.8603C33.8669 18.5837 34.338 19.2171 34.9505 19.6923C35.563 20.1675 36.2937 20.4664 37.0636 20.5567C37.8335 20.6469 38.6135 20.5252 39.3193 20.2046C40.0251 19.8839 40.6299 19.3766 41.0685 18.7374C41.507 18.0981 41.7626 17.3513 41.8077 16.5774C41.8528 15.8035 41.6856 15.032 41.3243 14.3461C40.9629 13.6603 40.4211 13.0862 39.7573 12.6858C39.0935 12.2854 38.333 12.0745 37.5577 12.0747Z" fill="#92D9F8"/>
</g>
<mask id="mask1_6748_4394" style="mask-type:luminance" maskUnits="userSpaceOnUse" x="5" y="10" width="28" height="46">
<path d="M13.2279 15.9287C13.228 17.2618 13.7577 18.5402 14.7004 19.4828C15.6431 20.4254 16.9216 20.9549 18.2547 20.9549C18.2547 20.9549 22.0236 20.8137 22.1196 24.5126C22.1226 24.8527 22.0567 25.1898 21.9258 25.5036C21.5387 26.258 20.9858 26.9148 20.3084 27.4247C19.6311 27.9345 18.847 28.2843 18.015 28.4475C17.5174 28.5466 17.0126 28.6058 16.5056 28.6247C16.5056 28.6247 16.5106 28.634 16.5112 28.6365C15.2322 28.711 14.03 29.2715 13.1506 30.2031C12.2712 31.1348 11.781 32.3673 11.7804 33.6485C11.7808 33.8297 11.791 34.0108 11.8107 34.191C11.8302 34.5943 11.8094 34.9985 11.7488 35.3976C11.5085 36.2096 10.8197 37.3796 8.8662 37.9048L8.87425 37.911C8.15282 38.1444 7.50688 38.5664 7.00331 39.1332C6.49974 39.7001 6.15684 40.3913 6.0101 41.1352C5.86337 41.8791 5.91814 42.6487 6.16874 43.3643C6.41934 44.0799 6.85666 44.7156 7.43543 45.2054L7.4119 45.2172L7.49737 45.2587C8.24547 45.8703 9.18019 46.2077 10.1464 46.215C10.5909 46.2771 11.0216 46.4145 11.4199 46.6213C12.5391 47.2407 13.7023 48.5841 13.859 51.4964C13.859 51.5033 13.859 51.5101 13.859 51.5169C13.859 51.5429 13.8633 51.5677 13.8646 51.5937L13.8701 51.5875C13.9662 52.3865 14.2869 53.1419 14.795 53.7661C15.3031 54.3902 15.9777 54.8575 16.7406 55.1137C17.5035 55.3699 18.3234 55.4045 19.1052 55.2136C19.887 55.0226 20.5987 54.6139 21.1576 54.0348C21.7165 53.4558 22.0997 52.7301 22.2628 51.942C22.426 51.154 22.3623 50.3358 22.0792 49.5824C21.7961 48.8291 21.3053 48.1714 20.6635 47.6858C20.0218 47.2002 19.2555 46.9064 18.4535 46.8387L18.4585 46.8288C17.9845 46.7877 17.5232 46.6545 17.1002 46.4368C16.012 45.7771 15.2162 44.7274 14.8748 43.5015C14.5732 42.7156 14.5324 41.8535 14.7583 41.0426C15.1056 40.2372 15.6834 39.5526 16.4189 39.0748V39.0804C16.7813 38.8364 17.1934 38.6761 17.6254 38.6109V38.606C18.6724 38.4333 19.6379 37.9335 20.3833 37.1783C21.1288 36.4232 21.6161 35.4514 21.7753 34.4022L21.7858 34.4078C21.8171 33.8418 21.9508 33.2861 22.1803 32.7677C22.7236 31.8884 23.4689 31.1515 24.3543 30.6184C25.2398 30.0852 26.2397 29.7712 27.271 29.7024L27.258 29.6906C28.5762 29.6556 29.8278 29.1038 30.7428 28.1543C31.6578 27.2048 32.1629 25.9336 32.1492 24.6151C32.1354 23.2965 31.6039 22.0361 30.6693 21.1059C29.7347 20.1757 28.4719 19.6501 27.1533 19.6425C27.0517 19.6425 26.9514 19.6518 26.8511 19.6573L26.8591 19.6487C26.8591 19.6487 24.0397 19.7725 23.3181 16.5598C23.2881 16.3756 23.2742 16.1891 23.2766 16.0024C23.2766 15.9789 23.2803 15.9553 23.2803 15.9312C23.2803 14.598 22.7507 13.3194 21.808 12.3766C20.8653 11.4339 19.5867 10.9043 18.2535 10.9043C16.9203 10.9043 15.6417 11.4339 14.6989 12.3766C13.7562 13.3194 13.2266 14.598 13.2266 15.9312" fill="white"/>
</mask>
<g mask="url(#mask1_6748_4394)">
<path d="M32.1791 11.207L31.7734 10.9004H32.1556L32.1791 10.9184V11.207Z" fill="#50A2CE"/>
<path d="M32.1785 11.4969L31.3906 10.9023H31.7728L32.1785 11.2089V11.4969Z" fill="#51A3CE"/>
<path d="M32.1778 11.7836L31.0078 10.9004H31.3893L32.1772 11.495L32.1778 11.7836Z" fill="#52A4CF"/>
<path d="M32.1811 12.0723L30.6289 10.9004H31.0111L32.1811 11.7836V12.0723Z" fill="#52A5D0"/>
<path d="M32.1804 12.3648L30.2461 10.9043H30.6282L32.1804 12.0768V12.3648Z" fill="#53A6D1"/>
<path d="M32.1798 12.6495L29.8633 10.9004H30.2454L32.1798 12.3634V12.6495Z" fill="#54A6D2"/>
<path d="M32.1791 12.9381L29.4805 10.9004H29.862L32.1785 12.6495L32.1791 12.9381Z" fill="#54A7D3"/>
<path d="M32.1823 13.2268L29.1016 10.9004H29.4837L32.1823 12.9381V13.2268Z" fill="#55A8D3"/>
<path d="M32.1817 13.5154L28.7188 10.9004H29.1009L32.1817 13.2268V13.5154Z" fill="#56A9D4"/>
<path d="M32.181 13.8034L28.3359 10.9004H28.7181L32.181 13.5154V13.8034Z" fill="#57AAD5"/>
<path d="M32.1812 14.092L27.957 10.9004H28.3386L32.1837 13.8034L32.1812 14.092Z" fill="#57ABD6"/>
<path d="M32.1791 14.3807L27.5703 10.9004H27.9525L32.1791 14.092V14.3807Z" fill="#58ACD7"/>
<path d="M32.1784 14.6693L27.1875 10.9004H27.5697L32.1784 14.3807V14.6693Z" fill="#59ADD8"/>
<path d="M32.1817 14.9579L26.8086 10.9004H27.1908L32.1817 14.6693V14.9579Z" fill="#59AED9"/>
<path d="M32.181 15.2459L26.4258 10.9004H26.8073L32.1804 14.9579L32.181 15.2459Z" fill="#5AAFDA"/>
<path d="M32.1804 15.5346L26.043 10.9004H26.4257L32.181 15.2459L32.1804 15.5346Z" fill="#5BB0DA"/>
<path d="M32.1791 15.8232L25.6602 10.9004H26.0423L32.1797 15.5346L32.1791 15.8232Z" fill="#5CB1DB"/>
<path d="M32.1806 42.0137L22.1219 55.334H5.92578V21.215L13.7126 10.9023H25.6585L32.1806 15.8252V42.0137Z" fill="#5CB1DB"/>
</g>
<path d="M21.688 60.8799C20.8596 60.3823 19.9328 60.0714 18.972 59.9688H18.9757C18.9416 59.9688 18.9138 59.9651 18.8822 59.9632H18.8264C18.5192 59.9593 18.2142 59.9098 17.9215 59.8165C17.3504 59.502 16.8504 59.0729 16.4529 58.5561C16.0554 58.0392 15.7691 57.4458 15.6119 56.8131C15.339 55.6658 14.7325 54.6251 13.8689 53.8221C12.2585 52.2117 10.2765 51.5738 9.45153 52.4019C8.62652 53.23 9.26014 55.2077 10.8718 56.8193C11.4967 57.4618 12.2416 57.9755 13.0644 58.3312C13.0644 58.3312 13.9315 58.6464 14.2275 58.7988C15.06 59.277 16.632 60.3349 16.9472 61.6374C17.1603 62.59 18.1408 63.7309 19.5697 64.5559C21.5443 65.6962 23.6192 65.7984 24.2045 64.7839C24.7898 63.7693 23.6638 62.0245 21.6892 60.8818" fill="#226187"/>
<path d="M42.8266 33.6226C42.8266 32.2894 42.297 31.0108 41.3542 30.068C40.4115 29.1253 39.1329 28.5957 37.7997 28.5957C36.4665 28.5957 35.1879 29.1253 34.2452 30.068C33.3025 31.0108 32.7729 32.2894 32.7729 33.6226C32.7729 33.6226 32.5914 37.0812 26.9817 37.6944L26.9903 37.7024C25.7924 37.7855 24.6638 38.2951 23.8094 39.1389C22.955 39.9827 22.4312 41.1048 22.3332 42.3016C22.2351 43.4985 22.5692 44.6908 23.2749 45.6624C23.9806 46.6341 25.0111 47.3206 26.1796 47.5976V47.6075C26.1796 47.6075 29.8451 48.8778 31.1798 53.9679C31.3542 54.8658 31.7703 55.6991 32.3832 56.378C32.9962 57.0569 33.7828 57.5557 34.6583 57.8206C35.5337 58.0855 36.4649 58.1065 37.3514 57.8813C38.238 57.6561 39.0462 57.1932 39.6891 56.5426C40.332 55.892 40.7852 55.0782 40.9998 54.1891C41.2144 53.3 41.1824 52.3691 40.907 51.4968C40.6317 50.6246 40.1236 49.844 39.4374 49.2392C38.7512 48.6343 37.913 48.2282 37.0131 48.0646L37.0168 48.0603C37.0168 48.0603 36.9852 48.0603 36.9283 48.0516C36.8713 48.0429 36.7988 48.0299 36.7332 48.0219C35.923 47.8751 33.5886 47.1597 32.623 43.8435C32.4044 43.0633 32.426 42.2354 32.6849 41.4676C32.8812 41.0628 33.1127 40.6761 33.3767 40.3118C34.2395 39.4568 35.3426 38.8853 36.5387 38.6736C36.8992 38.6285 37.2632 38.6181 37.6257 38.6426C37.6839 38.6426 37.7421 38.6507 37.8003 38.6507C39.1335 38.6505 40.412 38.1208 41.3547 37.1782C42.2974 36.2355 42.827 34.957 42.8272 33.6238" fill="#307CAB"/>
<path d="M23.2691 0.589722C22.6126 -0.378985 20.55 -0.128137 18.6628 1.15026C17.8492 1.68067 17.162 2.38329 16.6498 3.20845L16.6443 3.19978C16.6443 3.19978 16.6294 3.23384 16.6009 3.29021C16.5928 3.30507 16.586 3.31932 16.578 3.33418C16.4161 3.63399 16.2208 3.9145 15.9958 4.17034C15.2985 5.02738 14.3951 5.69337 13.3702 6.1059L13.2959 6.1251C13.2631 6.13377 13.2302 6.13934 13.1974 6.14678C13.0228 6.18007 12.846 6.20077 12.6685 6.20871L12.6722 6.21243C11.7097 6.29233 10.4604 7.03125 9.42107 8.23222C7.92899 9.95595 7.43906 11.9745 8.32168 12.7407C9.20429 13.5068 11.1336 12.7308 12.6257 11.0064C13.2798 10.2779 13.7641 9.41334 14.0435 8.47502C14.0763 8.35114 14.1104 8.24027 14.1451 8.13808C14.5109 7.53698 15.0012 7.02111 15.5828 6.62509C16.1645 6.22908 16.8242 5.96209 17.5176 5.84204C17.6024 5.83089 17.6823 5.81541 17.7715 5.80798C18.9495 5.75668 20.0859 5.35776 21.0375 4.66151C22.9247 3.38249 23.9226 1.56091 23.2673 0.59158" fill="#226187"/>
<path d="M7.25952 46.5001C8.3744 48.4289 8.49146 50.4455 7.52337 51.0042C6.55529 51.5629 4.86872 50.4524 3.75508 48.523C2.64144 46.5936 2.52314 44.5782 3.49123 44.0195C4.45931 43.4608 6.14588 44.5714 7.25952 46.5001Z" fill="#5CB1DB"/>
</svg>
