<svg width="20" height="20" viewBox="0 0 20 20" fill="none" xmlns="http://www.w3.org/2000/svg">
<path d="M3.56043 0C2.9716 0 2.42461 0.292383 2.09785 0.782773L0.495703 3.18605C0.427266 3.28855 0.394414 3.40656 0.339844 3.51566H9.41766V0H3.56043Z" fill="#EAF1F4"/>
<path d="M19.5079 3.18602L17.9057 0.782773C17.579 0.292383 16.9929 0 16.4041 0H10.5859V3.51562H19.6638C19.6092 3.40656 19.5763 3.28855 19.5079 3.18602Z" fill="#EAF1F4"/>
<path d="M19.9818 4.6875H0.0182422C0.0164453 4.72957 0 4.76883 0 4.81109V18.2422C0 19.2115 0.788516 20 1.75781 20H18.2422C19.2115 20 20 19.2115 20 18.2422V4.81109C20 4.76883 19.9836 4.72957 19.9818 4.6875ZM12.3438 10.5469H7.65625C6.68695 10.5469 5.89844 9.75836 5.89844 8.78906C5.89844 7.81977 6.68695 7.03125 7.65625 7.03125H12.3438C13.313 7.03125 14.1016 7.81977 14.1016 8.78906C14.1016 9.75836 13.313 10.5469 12.3438 10.5469Z" fill="#EAF1F4"/>
</svg>
