<svg width="20" height="18" viewBox="0 0 20 18" fill="none" xmlns="http://www.w3.org/2000/svg">
<path d="M3.38506 3.3418H3.34375V5.91515H3.38506C5.08882 5.85004 5.09088 3.40722 3.38506 3.3418Z" fill="#EAF1F4"/>
<path d="M15.8359 3.3418C15.4697 3.3418 15.1719 3.6394 15.1719 4.00517V5.25177C15.2047 6.12962 16.4668 6.13167 16.4999 5.25115V4.00583C16.4999 3.63304 16.1982 3.3418 15.8359 3.3418Z" fill="#EAF1F4"/>
<path d="M19.2614 0H0.581329C0.26028 0 0 0.26028 0 0.581329V8.67602C0 8.99707 0.26028 9.25735 0.581329 9.25735H19.2614C19.5824 9.25735 19.8427 8.99707 19.8427 8.67602V0.581329C19.8427 0.26028 19.5824 0 19.2614 0ZM3.38333 7.07803H2.76065C2.43961 7.07803 2.17932 6.81775 2.17932 6.4967V2.76069C2.17932 2.43964 2.43961 2.17936 2.76065 2.17936H3.38333C6.64017 2.30741 6.61727 6.95971 3.38333 7.07803ZM7.9506 4.04733C8.7211 4.07593 8.72052 5.18166 7.9506 5.20999H7.70067V5.91533H8.36467C9.13516 5.94393 9.13458 7.04966 8.36467 7.07799H7.11934C6.79829 7.07799 6.53801 6.81771 6.53801 6.49666V2.76065C6.53801 2.43961 6.79829 2.17932 7.11934 2.17932H8.36467C9.13516 2.20793 9.13458 3.31365 8.36467 3.34198H7.70067V4.04733H7.9506ZM13.3047 6.4967C13.2761 7.26719 12.1704 7.26661 12.142 6.4967V5.22324L11.998 5.51135C11.791 5.93665 11.1649 5.93649 10.9581 5.51135L10.814 5.22324V6.4967C10.7854 7.26719 9.67967 7.26661 9.65134 6.4967V2.76069C9.65134 2.49107 9.83671 2.25687 10.0991 2.1949C10.3615 2.13293 10.632 2.25955 10.7526 2.50072L11.478 3.95149L12.2034 2.50072C12.324 2.25959 12.5946 2.1329 12.8569 2.1949C13.1194 2.25684 13.3047 2.49107 13.3047 2.76069V6.4967H13.3047ZM17.6634 5.25134C17.5684 7.68385 14.0947 7.65796 14.01 5.25196V4.00536C14.0948 1.59877 17.569 1.57401 17.6634 4.00598V5.25134Z" fill="#EAF1F4"/>
<path d="M18.3048 13.8353L18.7822 13.3568C19.0866 13.0621 18.9586 12.5217 18.5545 12.3947L13.2182 10.6158C13.0094 10.5462 12.7791 10.6005 12.6234 10.7562C12.4677 10.9119 12.4133 11.1422 12.483 11.351L14.2619 16.6873C14.3889 17.0915 14.9293 17.2193 15.224 16.915L15.7025 16.4376L17.0709 17.805C17.2979 18.0319 17.6658 18.0319 17.8928 17.8051L19.6723 16.0256C19.8991 15.7986 19.8991 15.4307 19.6722 15.2038L18.3048 13.8353Z" fill="#EAF1F4"/>
</svg>
