<svg width="20" height="21" viewBox="0 0 20 21" fill="none" xmlns="http://www.w3.org/2000/svg">
<path d="M19.4111 12.1691L18.5527 11.45C17.9646 10.9573 17.9657 10.0417 18.5527 9.55004L19.4111 8.83087C20.0219 8.31903 20.1782 7.44138 19.7826 6.74391L18.0876 3.75609C17.6919 3.05866 16.8667 2.7576 16.1259 3.04004L15.0847 3.43703C14.3715 3.70888 13.5929 3.25037 13.4679 2.48706L13.2851 1.37087C13.1551 0.576557 12.4863 0 11.695 0H8.30503C7.5137 0 6.84493 0.576557 6.71487 1.37091L6.53206 2.48706C6.40685 3.25172 5.62716 3.70843 4.91531 3.43707L3.87411 3.04004C3.13324 2.7576 2.30817 3.0587 1.91245 3.75609L0.217469 6.74387C-0.178176 7.44126 -0.0219654 8.31895 0.588972 8.83083L1.44736 9.55C2.03545 10.0427 2.03428 10.9582 1.44736 11.4499L0.588932 12.1691C-0.0219653 12.681 -0.178216 13.5587 0.217428 14.256L1.91245 17.2439C2.30813 17.9413 3.13304 18.2424 3.87411 17.9599L4.91527 17.5629C5.62857 17.291 6.40705 17.7498 6.53202 18.5129L6.71483 19.629C6.84493 20.4234 7.5137 21 8.30499 21H11.695C12.4863 21 13.155 20.4234 13.2851 19.6291L13.4679 18.513C13.5931 17.7485 14.3727 17.2915 15.0847 17.563L16.1259 17.96C16.8669 18.2424 17.6919 17.9413 18.0876 17.2439L19.7826 14.256C20.1782 13.5587 20.0219 12.681 19.4111 12.1691ZM16.6915 16.4236L15.6503 16.0266C13.9858 15.3921 12.1694 16.4626 11.8778 18.2432L11.695 19.3594H8.30503L8.12222 18.2432C7.83007 16.4592 6.01096 15.3933 4.34975 16.0266L3.30855 16.4236L1.61357 13.4358L2.47196 12.7166C3.8442 11.5669 3.84134 9.43068 2.47196 8.28339L1.61357 7.56422L3.30859 4.5764L4.34975 4.97339C6.01422 5.6079 7.83063 4.53739 8.12222 2.75678L8.30499 1.64062H11.695L11.8778 2.75678C12.1699 4.54104 13.9891 5.60659 15.6502 4.97339L16.6914 4.5764L18.3868 7.56381C18.3868 7.56381 18.3867 7.56394 18.3864 7.56418L17.528 8.28335C16.1558 9.43294 16.1586 11.5692 17.528 12.7166L18.3864 13.4357L16.6915 16.4236ZM10 6.45311C7.80738 6.45311 6.02353 8.26855 6.02353 10.5C6.02353 12.7315 7.80738 14.5469 10 14.5469C12.1926 14.5469 13.9765 12.7315 13.9765 10.5C13.9765 8.26855 12.1926 6.45311 10 6.45311ZM10 12.9063C8.69628 12.9063 7.63561 11.8268 7.63561 10.5C7.63561 9.17319 8.69628 8.09374 10 8.09374C11.3037 8.09374 12.3644 9.17319 12.3644 10.5C12.3644 11.8268 11.3037 12.9063 10 12.9063Z" fill="#767676"/>
</svg>
