<svg width="22" height="22" viewBox="0 0 22 22" fill="none" xmlns="http://www.w3.org/2000/svg">
<path d="M15.3173 13.0881C16.2148 11.7491 16.7392 10.1379 16.7392 8.40591C16.7392 3.77089 12.9846 0 8.36958 0C3.75457 0 0 3.77089 0 8.40587C0 13.0408 3.75461 16.8118 8.36963 16.8118C10.1282 16.8118 11.7614 16.2638 13.1099 15.3296L19.7804 22L22 19.7708L15.3173 13.0881ZM8.36963 14.4508C5.05815 14.4508 2.36397 11.745 2.36397 8.41911C2.36397 5.09329 5.05811 2.38747 8.36963 2.38747C11.6811 2.38747 14.3753 5.09329 14.3753 8.41916C14.3753 11.745 11.6811 14.4508 8.36963 14.4508Z" fill="#7D859A"/>
</svg>
