<svg width="42" height="43" viewBox="0 0 42 43" fill="none" xmlns="http://www.w3.org/2000/svg">
<g clip-path="url(#clip0_51_839)">
<path d="M19.18 40.5431L18.8485 40.7387C18.8068 40.6558 18.7458 40.5841 18.6706 40.5295C18.6022 40.4897 18.5236 40.4704 18.4443 40.4741C18.3414 40.4704 18.2407 40.5043 18.1612 40.5693C18.1256 40.5979 18.097 40.6341 18.0777 40.6753C18.0583 40.7164 18.0487 40.7615 18.0496 40.8069C18.0496 40.9387 18.1475 41.0445 18.3443 41.1249L18.6149 41.2346C18.8011 41.2995 18.9672 41.4112 19.097 41.559C19.2012 41.6924 19.2551 41.858 19.2494 42.0268C19.2532 42.1408 19.2331 42.2543 19.1903 42.3601C19.1476 42.466 19.0831 42.5618 19.001 42.6414C18.9191 42.7219 18.8216 42.7851 18.7145 42.8271C18.6074 42.8692 18.4929 42.8893 18.3778 42.8863C18.1636 42.8942 17.9547 42.8196 17.7945 42.678C17.6346 42.5217 17.5345 42.3149 17.5114 42.0932L17.9262 42.0031C17.9313 42.1189 17.9649 42.2316 18.0241 42.3314C18.0645 42.3817 18.115 42.4231 18.1724 42.453C18.2298 42.4829 18.2928 42.5006 18.3574 42.505C18.422 42.5094 18.4868 42.5004 18.5478 42.4786C18.6087 42.4568 18.6645 42.4227 18.7114 42.3783C18.7534 42.3357 18.7862 42.2851 18.8079 42.2295C18.8296 42.1739 18.8397 42.1145 18.8377 42.0549C18.8377 42.0066 18.8302 41.9586 18.8155 41.9126C18.8002 41.8683 18.7771 41.8272 18.7471 41.7911C18.7121 41.7515 18.6717 41.717 18.627 41.6886C18.5711 41.6531 18.5123 41.6222 18.4512 41.5965L18.189 41.4877C17.8183 41.3329 17.6322 41.1047 17.6322 40.8043C17.6306 40.7078 17.6508 40.6121 17.6912 40.5243C17.7317 40.4365 17.7913 40.3588 17.8658 40.2968C18.0261 40.1571 18.2338 40.0831 18.4469 40.0898C18.5996 40.0894 18.7493 40.1318 18.8789 40.2121C19.0085 40.2924 19.1127 40.4074 19.1796 40.5438" fill="white"/>
<path d="M19.7127 41.4765C19.7106 41.2937 19.7469 41.1125 19.8192 40.9444C19.8915 40.7763 19.9983 40.625 20.1327 40.5002C20.2634 40.3679 20.4199 40.2634 20.5925 40.1931C20.7651 40.1227 20.9504 40.088 21.1369 40.091C21.5107 40.0925 21.8687 40.2409 22.1328 40.5038C22.3969 40.7666 22.5457 41.1226 22.5468 41.4941C22.5498 41.6781 22.5142 41.8607 22.4422 42.0303C22.3703 42.1998 22.2636 42.3527 22.1289 42.479C21.8695 42.7319 21.5231 42.8774 21.1598 42.8857C20.7965 42.8941 20.4437 42.7648 20.1728 42.524C20.0224 42.3946 19.903 42.2334 19.8233 42.0522C19.7437 41.871 19.7059 41.6743 19.7127 41.4767M20.1254 41.4819C20.1203 41.6816 20.1757 41.8782 20.2843 42.0463C20.3929 42.2145 20.5498 42.3463 20.7346 42.4249C20.9194 42.5034 21.1237 42.525 21.3211 42.487C21.5184 42.4489 21.6997 42.3528 21.8415 42.2112C22.0285 42.0169 22.1331 41.7586 22.1337 41.4897C22.1343 41.2209 22.0307 40.9621 21.8446 40.7671C21.7526 40.6719 21.6418 40.5967 21.5191 40.5462C21.3964 40.4958 21.2645 40.4713 21.1317 40.4742C20.9987 40.4715 20.8666 40.4962 20.7437 40.5466C20.6207 40.597 20.5095 40.6721 20.417 40.7671C20.3218 40.8603 20.2468 40.9718 20.1966 41.0949C20.1465 41.218 20.1222 41.35 20.1254 41.4828" fill="white"/>
<path d="M23.5755 40.1411V42.4545H24.3725V42.8365H23.1647V40.1411H23.5755Z" fill="white"/>
<path d="M25.1916 40.1414V41.7653C25.1781 41.9419 25.2177 42.1186 25.3053 42.2728C25.3625 42.3452 25.4355 42.4038 25.5187 42.444C25.602 42.4843 25.6934 42.5052 25.786 42.5052C25.8786 42.5052 25.97 42.4843 26.0532 42.444C26.1365 42.4038 26.2095 42.3452 26.2666 42.2728C26.355 42.1189 26.3947 41.942 26.3804 41.7653V40.1414H26.79V41.8767C26.7945 42.0055 26.7732 42.1339 26.7273 42.2545C26.6814 42.375 26.6118 42.4853 26.5226 42.5788C26.4267 42.6762 26.3121 42.7536 26.1856 42.8064C26.0592 42.8592 25.9234 42.8864 25.7862 42.8864C25.6491 42.8864 25.5133 42.8592 25.3868 42.8064C25.2604 42.7536 25.1458 42.6762 25.0498 42.5788C24.9606 42.4853 24.891 42.375 24.8451 42.2545C24.7992 42.1339 24.7779 42.0055 24.7825 41.8767V40.1414H25.1916Z" fill="white"/>
<path d="M28.2914 40.5245V42.8368H27.8829V40.5245H27.2595V40.1414H28.9129V40.5245H28.2914Z" fill="white"/>
<path d="M29.7921 40.1409H29.3824V42.8361H29.7921V40.1409Z" fill="white"/>
<path d="M30.4122 41.4765C30.4101 41.2937 30.4463 41.1125 30.5187 40.9444C30.591 40.7763 30.6977 40.625 30.8322 40.5002C30.9629 40.3679 31.1193 40.2634 31.292 40.1931C31.4646 40.1227 31.6498 40.088 31.8364 40.091C32.2102 40.0925 32.5682 40.2408 32.8324 40.5037C33.0966 40.7665 33.2454 41.1226 33.2465 41.4941C33.2495 41.6781 33.2139 41.8607 33.1419 42.0303C33.07 42.1998 32.9633 42.3527 32.8286 42.479C32.5693 42.7319 32.2228 42.8774 31.8595 42.8857C31.4962 42.8941 31.1434 42.7648 30.8725 42.524C30.7221 42.3946 30.6027 42.2334 30.523 42.0522C30.4434 41.871 30.4056 41.6743 30.4124 41.4767M30.8251 41.4819C30.82 41.6816 30.8754 41.8782 30.984 42.0463C31.0926 42.2145 31.2495 42.3463 31.4343 42.4249C31.6191 42.5034 31.8234 42.525 32.0208 42.487C32.2181 42.4489 32.3994 42.3528 32.5412 42.2112C32.7285 42.0169 32.8333 41.7583 32.8338 41.4893C32.8344 41.2202 32.7307 40.9612 32.5443 40.7661C32.4523 40.6708 32.3413 40.5956 32.2185 40.5452C32.0956 40.4947 31.9636 40.4702 31.8307 40.4732C31.6977 40.4706 31.5655 40.4952 31.4425 40.5456C31.3195 40.596 31.2083 40.6711 31.1158 40.7661C31.0206 40.8593 30.9455 40.9709 30.8954 41.094C30.8452 41.2171 30.821 41.3491 30.8241 41.4819" fill="white"/>
<path d="M33.8656 42.8366V39.9583L35.8427 42.0142V40.1414H36.2523V42.9998L34.2743 40.949V42.8366H33.8656Z" fill="white"/>
<path d="M38.5395 40.543L38.208 40.7386C38.166 40.656 38.105 40.5844 38.0301 40.5294C37.9617 40.4896 37.8831 40.4704 37.8038 40.4741C37.7009 40.4704 37.6002 40.5043 37.5207 40.5693C37.4851 40.5978 37.4565 40.6341 37.4372 40.6752C37.4178 40.7164 37.4082 40.7614 37.4091 40.8069C37.4091 40.9387 37.507 41.0444 37.7038 41.1249L37.9744 41.2344C38.1606 41.2992 38.3267 41.411 38.4565 41.5587C38.5607 41.6921 38.6147 41.8575 38.6092 42.0263C38.613 42.1404 38.5929 42.254 38.5501 42.3599C38.5072 42.4658 38.4427 42.5617 38.3605 42.6414C38.2783 42.7218 38.1806 42.7849 38.0734 42.827C37.9661 42.8691 37.8514 42.8892 37.7361 42.8862C37.5223 42.8939 37.3138 42.8193 37.154 42.678C36.9937 42.522 36.8935 42.315 36.8708 42.0931L37.2857 42.0031C37.2908 42.1188 37.3244 42.2316 37.3836 42.3314C37.4254 42.3888 37.4811 42.4349 37.5455 42.4654C37.6099 42.4959 37.6809 42.5099 37.7522 42.5061C37.8112 42.5081 37.8699 42.4978 37.9247 42.4758C37.9794 42.4539 38.0289 42.4207 38.07 42.3785C38.1121 42.3361 38.1451 42.2854 38.1668 42.2298C38.1885 42.1742 38.1985 42.1148 38.1962 42.0552C38.1966 42.0069 38.1895 41.9589 38.1752 41.9128C38.16 41.8685 38.1368 41.8274 38.1068 41.7913C38.0719 41.7517 38.0314 41.7172 37.9867 41.6889C37.9308 41.6533 37.872 41.6224 37.8109 41.5967L37.5497 41.4869C37.179 41.3322 36.9928 41.104 36.9928 40.8036C36.9913 40.7071 37.0115 40.6114 37.0519 40.5236C37.0923 40.4358 37.152 40.3581 37.2264 40.2961C37.3867 40.1564 37.5945 40.0823 37.8076 40.089C37.9603 40.0887 38.11 40.1311 38.2396 40.2114C38.3692 40.2917 38.4734 40.4066 38.5403 40.543" fill="white"/>
<path d="M6.00779 33.2095C5.86505 32.9007 5.63958 32.6369 5.35608 32.4469C5.04463 32.2458 4.67869 32.1443 4.30748 32.1561C3.98142 32.1556 3.65867 32.2211 3.35893 32.3486C3.05935 32.4752 2.78591 32.6558 2.55243 32.8812C2.31063 33.116 2.11111 33.3903 1.96254 33.6921C1.80094 34.0156 1.69828 34.3649 1.65933 34.724C1.61255 35.0717 1.63111 35.4251 1.71407 35.7661C1.78501 36.0598 1.91858 36.3349 2.10576 36.5728C2.28662 36.7961 2.51725 36.9745 2.77942 37.0939C3.06545 37.2218 3.37637 37.2854 3.68998 37.2801C4.07812 37.2828 4.45963 37.18 4.79332 36.983C5.13349 36.7834 5.42732 36.5146 5.65551 36.1941L6.88084 36.983C6.51255 37.4576 6.04992 37.8519 5.52172 38.1412C4.93204 38.4555 4.27041 38.6123 3.6015 38.5964C3.07266 38.6025 2.5481 38.5015 2.05975 38.2997C1.61272 38.1159 1.21046 37.839 0.879961 37.4879C0.554028 37.1359 0.310872 36.7163 0.168077 36.2595C0.0114972 35.7634 -0.0377941 35.2399 0.0234348 34.7235C0.0840619 34.1796 0.245505 33.6516 0.499597 33.1661C0.741025 32.7015 1.06612 32.2848 1.45877 31.9366C2.27324 31.2256 3.32132 30.8352 4.40541 30.8391C5.04459 30.8181 5.67662 30.9781 6.22771 31.3006C6.6961 31.5823 7.0837 31.979 7.35322 32.4525L6.00779 33.2095Z" fill="white"/>
<path d="M12.4209 38.3766H7.71826L9.36242 31.0586H10.9858L9.63849 37.0822H12.7189L12.4209 38.3766Z" fill="white"/>
<path d="M21.6836 36.2753C21.4486 36.7368 21.1302 37.1514 20.7444 37.4985C20.361 37.8434 19.9181 38.1167 19.437 38.3052C18.9359 38.5011 18.4016 38.5998 17.8632 38.596C17.3435 38.6025 16.8283 38.4998 16.3514 38.2947C15.9108 38.1049 15.5171 37.8221 15.1976 37.4659C14.8822 37.1096 14.6471 36.6904 14.5081 36.2364C14.359 35.7465 14.3177 35.2305 14.387 34.7233C14.4474 34.1846 14.6043 33.6609 14.8502 33.177C15.3194 32.2427 16.1195 31.5138 17.0968 31.1304C17.5974 30.9337 18.1314 30.8346 18.6697 30.8385C19.1902 30.8327 19.706 30.9376 20.1824 31.1462C20.6224 31.3371 21.0153 31.6211 21.3337 31.9783C21.652 32.3356 21.8882 32.7575 22.0257 33.2148C22.1743 33.7033 22.2156 34.2178 22.1467 34.7236C22.0869 35.2642 21.93 35.7897 21.6836 36.2753ZM20.4908 33.7243C20.4342 33.4315 20.3178 33.1533 20.1487 32.9071C19.984 32.6747 19.7641 32.4863 19.5085 32.3588C19.2202 32.2179 18.9021 32.1483 18.5809 32.1557C18.2498 32.1522 17.9219 32.2215 17.6208 32.3588C17.3291 32.4917 17.065 32.6776 16.8422 32.9071C16.6116 33.1455 16.4246 33.4221 16.2896 33.7243C16.1457 34.0414 16.051 34.3783 16.0085 34.7236C15.9634 35.0537 15.9744 35.389 16.0411 35.7155C16.0986 36.007 16.2155 36.2836 16.3844 36.5286C16.5492 36.7609 16.769 36.9492 17.0246 37.0769C17.3126 37.2169 17.6303 37.2862 17.9509 37.2788C18.282 37.2822 18.6098 37.2133 18.9111 37.0769C19.2021 36.9429 19.466 36.7571 19.6897 36.5286C19.9189 36.2908 20.1055 36.0158 20.2414 35.7155C20.3863 35.4012 20.4818 35.0667 20.5245 34.7236C20.5692 34.3909 20.5578 34.0532 20.4908 33.7243Z" fill="white"/>
<path d="M30.1382 35.8966C30.0511 36.2681 29.9058 36.6236 29.7075 36.9502C29.302 37.6271 28.6658 38.1371 27.9143 38.3878C27.4822 38.5317 27.0288 38.6021 26.5731 38.596C26.1068 38.6041 25.6441 38.5141 25.2154 38.3317C24.8374 38.171 24.5012 37.927 24.2321 37.6181C23.9738 37.3163 23.7906 36.9582 23.6975 36.5729C23.5978 36.1598 23.5957 35.7294 23.6911 35.3153C23.8753 34.4751 24.0247 33.7842 24.1394 33.2424C24.2541 32.7005 24.3416 32.281 24.4046 31.9869C24.4676 31.6928 24.511 31.471 24.5372 31.334C24.5634 31.1971 24.5792 31.1028 24.5868 31.0589H26.2427L25.2814 35.4911C25.2372 35.6969 25.2319 35.9091 25.2656 36.1168C25.2958 36.3228 25.3713 36.5196 25.4867 36.6932C25.6055 36.8701 25.7664 37.0152 25.9551 37.1153C26.1797 37.2316 26.4307 37.2882 26.6837 37.2795C26.9161 37.2815 27.1467 37.2389 27.3628 37.154C27.5662 37.0739 27.7548 36.9607 27.9209 36.8191C28.0823 36.6798 28.2216 36.517 28.3338 36.3361C28.4456 36.1571 28.5254 35.9602 28.5698 35.7543L29.6405 31.0585H31.2974L30.1382 35.8966Z" fill="white"/>
<path d="M38.7554 36.2324C38.5249 36.6709 38.2121 37.0615 37.834 37.3833C37.451 37.7066 37.011 37.9563 36.5362 38.1199C36.0303 38.2945 35.498 38.3818 34.9624 38.3779H31.5198L33.1538 31.0601H35.692C36.2144 31.053 36.7333 31.1459 37.2205 31.3335C37.658 31.5007 38.0533 31.7611 38.3786 32.0964C38.6947 32.4258 38.9328 32.8212 39.0756 33.2536C39.2293 33.7278 39.276 34.2297 39.2125 34.7238C39.1565 35.2507 39.0016 35.7625 38.7557 36.2326M37.5249 33.785C37.4653 33.5126 37.3463 33.2565 37.1764 33.0346C37.007 32.8188 36.7873 32.6472 36.5362 32.5346C36.2498 32.4085 35.9389 32.3467 35.6257 32.3536H34.4886L33.4284 37.082H34.9843C35.3064 37.0839 35.6255 37.0209 35.9223 36.8967C36.2127 36.7746 36.4798 36.6036 36.7118 36.3914C36.9464 36.1764 37.1407 35.9216 37.2856 35.6391C37.4367 35.3545 37.5328 35.0442 37.5688 34.7245C37.6068 34.4115 37.5919 34.0945 37.5247 33.7864" fill="white"/>
<path d="M30.7047 16.0302C30.7047 16.0302 30.2996 13.8221 26.9664 13.8221C26.9664 13.8221 26.8664 10.6094 23.6354 9.80734C23.6354 9.80734 23.0691 5.84299 20.5255 4.93896L29.2394 7.14779C29.2394 7.14779 30.8555 7.14779 30.705 9.95719L30.7047 16.0302Z" fill="white"/>
<path d="M18.3337 4.2373L2.52711 0.0231995C2.52711 0.0231995 0.25531 -0.328562 0.204815 1.72924C0.15432 3.78704 0.204815 13.4206 0.204815 13.4206C0.204815 13.4206 2.4273 9.80779 8.28377 10.486C8.28377 10.486 9.34393 4.23753 15.3026 7.09806C15.3026 7.09806 15.7068 4.58883 18.3325 4.23706" fill="white"/>
<path d="M18.3051 16.9835C18.3051 16.9835 18.6579 14.9264 20.2749 15.4789C21.8919 16.0314 24.7175 17.335 24.7175 17.335C24.7175 17.335 25.9808 17.8362 25.8787 19.7948L25.5915 22.2025C25.5915 22.2025 25.3237 23.7085 23.8607 23.1074L18.7093 20.9478C18.4415 20.7688 18.2383 20.5094 18.1292 20.2075C18.0201 19.9056 18.0109 19.5769 18.1029 19.2695L18.3051 16.9835Z" fill="white"/>
<path d="M11.8433 18.6828C11.8433 18.6828 12.12 17.5225 13.0214 17.8948C13.9228 18.2672 15.4881 19.1143 15.4881 19.1143C15.4881 19.1143 16.1903 19.4449 16.0608 20.5582L15.8092 21.9225C15.8092 21.9225 15.6004 22.7717 14.788 22.3751L11.9296 20.9594C11.7833 20.8474 11.6769 20.6918 11.626 20.5154C11.575 20.339 11.5822 20.151 11.6465 19.9789L11.8433 18.6828Z" fill="white"/>
<path d="M28.7236 17.5789C28.7236 17.5789 29.0004 16.4186 29.9018 16.791C30.8031 17.1634 32.3685 18.0104 32.3685 18.0104C32.3685 18.0104 33.0697 18.342 32.9411 19.4554L32.6896 20.8189C32.6896 20.8189 32.4813 21.6673 31.6684 21.2719L28.8088 19.8546C28.6627 19.7427 28.5564 19.5873 28.5054 19.4111C28.4545 19.2349 28.4616 19.0472 28.5257 18.8753L28.7236 17.5789Z" fill="white"/>
<path d="M15.2321 10.9745C15.2321 10.9745 15.4657 9.99516 16.2259 10.3101C16.9862 10.625 18.3073 11.3396 18.3073 11.3396C18.3073 11.3396 18.8988 11.6189 18.7905 12.5574L18.5782 13.7065C18.5621 13.7976 18.5237 13.8835 18.4665 13.9565C18.4093 14.0295 18.3349 14.0875 18.2499 14.1253C18.1649 14.1631 18.0718 14.1796 17.9789 14.1733C17.886 14.1671 17.796 14.1383 17.7169 14.0894L15.305 12.8934C15.1814 12.7992 15.0914 12.6681 15.0482 12.5193C15.0051 12.3706 15.0109 12.212 15.065 12.0668L15.2321 10.9745Z" fill="white"/>
<path d="M22.4564 12.9364C22.4564 12.9364 22.6544 12.1055 23.2997 12.3736C23.9451 12.6416 25.0651 13.2462 25.0651 13.2462C25.0651 13.2462 25.5673 13.4837 25.4748 14.2799L25.2947 15.2561C25.2811 15.3336 25.2485 15.4065 25.1999 15.4684C25.1512 15.5304 25.088 15.5796 25.0158 15.6116C24.9435 15.6436 24.8645 15.6575 24.7856 15.6521C24.7067 15.6467 24.6304 15.6221 24.5633 15.5805L22.5166 14.5667C22.4119 14.4867 22.3358 14.3755 22.2992 14.2494C22.2627 14.1233 22.2676 13.9888 22.3134 13.8657L22.4564 12.9364Z" fill="white"/>
<path d="M18.72 23.8651C18.72 23.8651 18.918 23.0342 19.5634 23.3023C20.2087 23.5703 21.3288 24.1761 21.3288 24.1761C21.3288 24.1761 21.8309 24.4124 21.7384 25.2079L21.5572 26.1846C21.5435 26.262 21.5109 26.3349 21.4622 26.3968C21.4136 26.4588 21.3503 26.5079 21.2781 26.5398C21.2058 26.5717 21.1268 26.5855 21.0479 26.58C20.969 26.5745 20.8927 26.5497 20.8257 26.508L18.7812 25.4947C18.6766 25.4146 18.6006 25.3034 18.564 25.1773C18.5275 25.0512 18.5324 24.9169 18.578 24.7938L18.72 23.8651Z" fill="white"/>
<path d="M10.166 12.9364C10.166 12.9364 10.364 12.1055 11.0093 12.3736C11.6546 12.6416 12.7747 13.2462 12.7747 13.2462C12.7747 13.2462 13.2769 13.4837 13.1853 14.2799L13.0043 15.2561C12.9907 15.3336 12.9581 15.4065 12.9094 15.4684C12.8608 15.5304 12.7976 15.5796 12.7254 15.6116C12.6531 15.6436 12.5741 15.6575 12.4952 15.6521C12.4163 15.6467 12.34 15.6221 12.2729 15.5805L10.2273 14.5667C10.1226 14.4867 10.0464 14.3756 10.0096 14.2495C9.97286 14.1234 9.97755 13.989 10.023 13.8657L10.166 12.9364Z" fill="white"/>
<path d="M33.5463 26.1345C33.5463 26.1345 33.7443 25.3037 34.3897 25.5717C35.035 25.8397 36.1551 26.4443 36.1551 26.4443C36.1551 26.4443 36.6572 26.6807 36.5647 27.478L36.3847 28.4543C36.371 28.5317 36.3384 28.6045 36.2897 28.6665C36.241 28.7284 36.1778 28.7775 36.1055 28.8094C36.0333 28.8414 35.9543 28.8552 35.8754 28.8496C35.7965 28.8441 35.7202 28.8194 35.6532 28.7776L33.6065 27.7648C33.5019 27.6845 33.4257 27.5731 33.3892 27.4468C33.3526 27.3205 33.3576 27.186 33.4033 27.0627L33.5463 26.1345Z" fill="white"/>
<path d="M26.6873 25.9649C26.6873 25.9649 26.8053 25.4753 27.1842 25.6334C27.5632 25.7914 28.2225 26.1472 28.2225 26.1472C28.322 26.2108 28.3989 26.3039 28.4423 26.4133C28.4858 26.5227 28.4935 26.6429 28.4646 26.7569L28.3581 27.3312C28.3503 27.3769 28.3312 27.4199 28.3026 27.4565C28.274 27.4931 28.2367 27.5221 28.1941 27.541C28.1515 27.5598 28.1049 27.5679 28.0584 27.5645C28.0119 27.5611 27.9669 27.5464 27.9275 27.5216L26.7232 26.9245C26.6616 26.8773 26.6168 26.8117 26.5952 26.7374C26.5736 26.6632 26.5764 26.584 26.6031 26.5113L26.6873 25.9649Z" fill="white"/>
<path d="M7.09511 19.141C7.09511 19.141 7.21096 18.6513 7.59203 18.8094C7.97311 18.9674 8.63025 19.3232 8.63025 19.3232C8.72976 19.3868 8.80661 19.4799 8.84989 19.5893C8.89318 19.6988 8.9007 19.819 8.8714 19.9329L8.76616 20.5084C8.75789 20.5538 8.73857 20.5966 8.70988 20.6329C8.68119 20.6692 8.64399 20.698 8.60154 20.7168C8.55908 20.7356 8.51265 20.7438 8.46629 20.7406C8.41992 20.7375 8.37504 20.7231 8.33554 20.6988L7.13097 20.0994C7.0692 20.0523 7.02422 19.9868 7.00261 19.9124C6.981 19.8381 6.9839 19.7588 7.01087 19.6862L7.09511 19.141Z" fill="white"/>
<path d="M4.01491 14.0538C4.01491 14.0538 4.13076 13.5642 4.51183 13.7222C4.89291 13.8803 5.55005 14.236 5.55005 14.236C5.64972 14.2995 5.7267 14.3926 5.77 14.5021C5.8133 14.6115 5.82072 14.7318 5.7912 14.8457L5.68596 15.4201C5.67769 15.4655 5.65837 15.5082 5.62968 15.5446C5.60099 15.5809 5.56379 15.6097 5.52134 15.6285C5.47888 15.6473 5.43245 15.6554 5.38609 15.6523C5.33972 15.6492 5.29484 15.6348 5.25534 15.6105L4.05077 15.0122C3.989 14.9651 3.94402 14.8996 3.92241 14.8253C3.9008 14.7509 3.90369 14.6716 3.93067 14.599L4.01491 14.0538Z" fill="white"/>
<path d="M2.16618 29.2712H1.9347C1.65675 29.2712 1.47883 29.1833 1.40404 29.0022C1.35536 29.0952 1.27897 29.1709 1.18533 29.219C1.09169 29.2672 0.985373 29.2854 0.880917 29.2712C0.428114 29.2712 0.199707 28.9792 0.199707 28.3918C0.199707 27.8236 0.428114 27.5391 0.880917 27.5391H1.60295V28.5644C1.60295 28.8259 1.72093 28.9567 1.9524 28.9567H2.16618V29.2712ZM1.26506 27.8346H0.901917C0.84386 27.8292 0.785445 27.8403 0.733589 27.8669C0.681734 27.8934 0.638612 27.9341 0.60933 27.9842C0.553462 28.1124 0.529193 28.252 0.538542 28.3913C0.529672 28.532 0.553909 28.6727 0.60933 28.8024C0.637599 28.8537 0.68039 28.8956 0.7324 28.923C0.78441 28.9503 0.843351 28.9619 0.901917 28.9563C0.960262 28.9617 1.01892 28.95 1.07067 28.9226C1.12241 28.8953 1.16496 28.8535 1.19309 28.8024C1.2486 28.6728 1.27284 28.532 1.26388 28.3913L1.26506 27.8346ZM0.954536 26.9965C0.955569 27.0477 0.936396 27.0973 0.901118 27.1346C0.865841 27.172 0.81726 27.1941 0.76577 27.1963C0.714886 27.1933 0.667161 27.1708 0.632621 27.1335C0.598081 27.0962 0.579414 27.0471 0.580543 26.9965C0.579514 26.9463 0.598336 26.8977 0.632969 26.8611C0.667601 26.8245 0.715281 26.8029 0.76577 26.8009C0.81684 26.8021 0.865348 26.8234 0.900711 26.86C0.936074 26.8967 0.955423 26.9457 0.954536 26.9965ZM1.43259 26.9965C1.43354 27.0471 1.41481 27.0961 1.38031 27.1333C1.3458 27.1705 1.29818 27.1931 1.24736 27.1963C1.19679 27.1931 1.14945 27.1705 1.11542 27.1332C1.0814 27.0959 1.06338 27.0468 1.0652 26.9965C1.06347 26.9466 1.08165 26.8981 1.11577 26.8614C1.14988 26.8248 1.19718 26.803 1.24736 26.8009C1.29779 26.8031 1.34536 26.8248 1.37995 26.8613C1.41455 26.8978 1.43343 26.9463 1.43259 26.9965Z" fill="white"/>
<path d="M3.02319 28.5921C3.02974 28.7722 2.96405 28.9476 2.84056 29.0796C2.77745 29.1439 2.70139 29.1941 2.61738 29.2271C2.53338 29.26 2.44331 29.275 2.35307 29.271H2.07983V28.9572H2.33561C2.57031 28.9572 2.6879 28.8264 2.68837 28.5649V27.6473L3.02319 27.5385V28.5921ZM2.80942 29.8099C2.81059 29.8605 2.79192 29.9095 2.75734 29.9466C2.72277 29.9837 2.67501 30.006 2.62419 30.0088C2.57395 30.0052 2.52703 29.9825 2.49313 29.9455C2.45922 29.9085 2.44093 29.8599 2.44203 29.8099C2.44085 29.7602 2.45921 29.7119 2.49322 29.6754C2.52722 29.6389 2.5742 29.617 2.62419 29.6143C2.67474 29.6161 2.72253 29.6377 2.7572 29.6743C2.79187 29.7109 2.81063 29.7596 2.80942 29.8099Z" fill="white"/>
<path d="M4.33293 29.2713H3.95539C3.89016 29.2749 3.82492 29.2643 3.76423 29.2403C3.70354 29.2162 3.64887 29.1793 3.60405 29.1321C3.55923 29.0848 3.52534 29.0284 3.50476 28.9668C3.48418 28.9051 3.4774 28.8398 3.48489 28.7753V26.9088L3.82279 26.7937V28.765C3.82279 28.8874 3.87965 28.9481 3.99763 28.9481H4.33293V29.2713Z" fill="white"/>
<path d="M6.63122 29.2713H4.24451V28.9563H5.84359V28.8182C5.85391 28.6046 5.82904 28.3907 5.76997 28.185C5.73975 28.0862 5.67671 28.0004 5.59114 27.9417C5.50556 27.883 5.4025 27.8549 5.29877 27.8619C5.19191 27.8678 5.08777 27.8976 4.9941 27.949C4.90042 28.0005 4.81963 28.0723 4.75771 28.159L4.51609 27.9151C4.61253 27.8011 4.73209 27.7087 4.86697 27.6438C5.00184 27.5789 5.14898 27.543 5.29877 27.5385C5.4517 27.5255 5.605 27.5589 5.73845 27.6343C5.8719 27.7096 5.97923 27.8234 6.04628 27.9606C6.15602 28.2325 6.20489 28.5249 6.18951 28.8175V28.9472H6.63051L6.63122 29.2713Z" fill="white"/>
<path d="M9.78971 29.2715H6.55237V28.9481H6.97143V27.9772L7.3105 27.8726V28.9483H8.01483V27.8152L8.35391 27.7085V28.9483H9.06555V27.6468L9.40462 27.5389V28.9483H9.789L9.78971 29.2715Z" fill="white"/>
<path d="M10.6116 28.5921C10.6169 28.7717 10.5521 28.9465 10.4306 29.0796C10.3671 29.1437 10.2909 29.1938 10.2068 29.2268C10.1226 29.2597 10.0325 29.2748 9.94214 29.271H9.7135V28.949H9.92398C10.1557 28.949 10.2734 28.8193 10.2734 28.5576V26.9097L10.6113 26.8009L10.6116 28.5921Z" fill="white"/>
<path d="M11.4131 29.2718H11.075V26.9091L11.4128 26.7939L11.4131 29.2718Z" fill="white"/>
<path d="M15.5289 29.1687C15.5289 29.7294 15.212 30.0099 14.5739 30.0099C14.4283 30.0229 14.2817 30.0007 14.1466 29.9451C14.0115 29.8895 13.8919 29.8022 13.7981 29.6907C13.6383 29.4256 13.5522 29.123 13.5487 28.8139L13.8861 28.6967C13.8625 28.9583 13.9159 29.2211 14.0397 29.4532C14.1049 29.53 14.188 29.5899 14.2818 29.6277C14.3755 29.6654 14.4771 29.6799 14.5777 29.6699C14.7307 29.6804 14.8835 29.6479 15.0187 29.5761C15.0773 29.5283 15.1232 29.467 15.1523 29.3974C15.1815 29.3279 15.1931 29.2524 15.186 29.1774V26.9128L15.5251 26.8009L15.5289 29.1687Z" fill="white"/>
<path d="M17.759 29.2712H17.3389C17.3165 29.4629 17.2352 29.643 17.1063 29.7872C17.0423 29.86 16.9628 29.9177 16.8736 29.9563C16.7844 29.9948 16.6877 30.0131 16.5905 30.0099C16.4445 30.0187 16.2993 29.9837 16.1736 29.9096L16.024 29.5578C16.1962 29.648 16.3883 29.694 16.5829 29.6917C16.6918 29.6843 16.7942 29.6377 16.8709 29.5607C16.9477 29.4836 16.9935 29.3814 16.9999 29.2731H16.7226C16.6193 29.2773 16.5163 29.2589 16.421 29.2191C16.3256 29.1793 16.2403 29.1191 16.171 29.0428C16.0437 28.887 15.9788 28.6899 15.9888 28.4894C15.9798 28.2736 16.0343 28.0598 16.1457 27.8743C16.2045 27.783 16.2864 27.7088 16.3833 27.659C16.4801 27.6092 16.5885 27.5857 16.6974 27.5908C17.1502 27.5908 17.3786 27.8912 17.3786 28.4896C17.3786 28.609 17.3743 28.7668 17.3713 28.9586H17.7597L17.759 29.2712ZM17.0388 28.4873C17.046 28.3562 17.03 28.2248 16.9916 28.0992C16.9704 28.0392 16.93 27.9879 16.8765 27.9531C16.823 27.9183 16.7595 27.902 16.6957 27.9066C16.4503 27.9066 16.3262 28.0992 16.3262 28.4873C16.3262 28.7992 16.4579 28.9563 16.721 28.9563H17.0348L17.0388 28.4873Z" fill="white"/>
<path d="M19.1938 29.2713H18.9579C18.865 29.2753 18.7724 29.2589 18.6867 29.2231C18.601 29.1872 18.5244 29.133 18.4624 29.0642C18.4002 29.1346 18.3226 29.1898 18.2355 29.2257C18.1485 29.2616 18.0543 29.2772 17.9602 29.2713H17.6726V28.9491H17.9399C18.1747 28.9491 18.2927 28.8194 18.2927 28.5577V26.9088L18.6306 26.7937V28.576C18.6306 28.825 18.7486 28.9474 18.98 28.9474H19.1938V29.2713Z" fill="white"/>
<path d="M20.9993 29.2713H19.1044V28.9563H20.6541V28.8182C20.6642 28.6045 20.6389 28.3906 20.5793 28.185C20.5496 28.0868 20.4873 28.0015 20.4027 27.9428C20.318 27.8842 20.2159 27.8556 20.1129 27.8619C20.0054 27.8677 19.9006 27.8974 19.8062 27.9489C19.7118 28.0003 19.6303 28.0721 19.5676 28.159L19.3255 27.9163C19.4226 27.8019 19.5429 27.7092 19.6786 27.6443C19.8143 27.5794 19.9623 27.5437 20.1129 27.5397C20.2658 27.5268 20.419 27.5602 20.5524 27.6356C20.6859 27.7109 20.7932 27.8247 20.8604 27.9618C20.9663 28.2347 21.0137 28.5265 20.9993 28.8187V29.2713Z" fill="white"/>
<path d="M42.0001 32.0074C42.0029 32.1767 41.9708 32.3448 41.9059 32.5014C41.841 32.6579 41.7446 32.7996 41.6226 32.9178C41.5031 33.0373 41.3611 33.1322 41.2046 33.197C41.0481 33.2617 40.8803 33.295 40.7108 33.295C40.5413 33.295 40.3735 33.2617 40.217 33.197C40.0605 33.1322 39.9185 33.0373 39.7991 32.9178C39.6772 32.7992 39.581 32.657 39.5164 32.5001C39.4517 32.3432 39.42 32.1748 39.4232 32.0053C39.4206 31.8177 39.4624 31.632 39.5454 31.4634C39.6251 31.2925 39.7428 31.1419 39.8897 31.023C40.1146 30.8309 40.4017 30.7257 40.6983 30.7268C40.884 30.7244 41.068 30.7625 41.2372 30.8387C41.4644 30.9372 41.6566 31.1013 41.7889 31.3095C41.9263 31.517 41.9994 31.76 41.9994 32.0084M40.7035 30.913C40.5619 30.9116 40.4216 30.9397 40.2916 30.9954C40.1616 31.0511 40.0447 31.1332 39.9484 31.2364C39.7452 31.4437 39.6315 31.7217 39.6315 32.0112C39.6315 32.3006 39.7452 32.5787 39.9484 32.786C40.0473 32.8881 40.1659 32.9693 40.297 33.0248C40.4282 33.0804 40.5692 33.1091 40.7118 33.1093C40.8543 33.1095 40.9955 33.0811 41.1268 33.026C41.2581 32.9708 41.3768 32.8899 41.476 32.7881C41.5782 32.6856 41.6586 32.5639 41.7127 32.43C41.7667 32.2961 41.7933 32.1528 41.7908 32.0086C41.7879 31.8332 41.7458 31.6606 41.6676 31.5032C41.5932 31.3491 41.4814 31.2157 41.3422 31.1151C41.1568 30.9823 40.9337 30.9116 40.7051 30.9132M40.8399 32.1327L41.3219 32.7501H40.9758L40.5327 32.1639V32.7501H40.2495V31.2709H40.5452C40.7046 31.2582 40.864 31.2967 40.9999 31.3806C41.0508 31.4199 41.0918 31.4706 41.1194 31.5286C41.1471 31.5866 41.1606 31.6502 41.1589 31.7143C41.159 31.807 41.1295 31.8973 41.0747 31.9723C41.0212 32.046 40.9445 32.0998 40.8566 32.1249L40.8399 32.1327ZM40.5331 31.9277H40.5815C40.7847 31.9277 40.8868 31.8588 40.8868 31.7195C40.8868 31.5886 40.7889 31.5239 40.5909 31.5239H40.5331V31.9277Z" fill="white"/>
</g>
<defs>
<clipPath id="clip0_51_839">
<rect width="42" height="43" fill="white"/>
</clipPath>
</defs>
</svg>
